<svg xmlns="http://www.w3.org/2000/svg" viewBox="0 0 512 512">
  <rect width="512" height="512" fill="#161210"/>
  <g transform="translate(256 256) scale(0.92) translate(-256 -256)">
  <circle cx="256" cy="256" r="240" fill="none" stroke="#d0a266" stroke-width="4"/>
  <circle cx="256" cy="256" r="226" fill="none" stroke="#d0a266" stroke-width="1.5"/>
  <path d="M 246.1 130.4 Q 210.3 93.3 285.5 46.1 Q 278.6 88.5 265.9 130.4 Z" fill="#d0a266"/><path d="M 277.5 129.8 L 293.4 92.2 L 291.4 133.0 Z" fill="#d0a266"/><path d="M 301.6 138.5 Q 285.4 89.6 373.7 79.7 Q 349.1 114.9 319.4 147.1 Z" fill="#d0a266"/><path d="M 330.1 151.6 L 360.7 124.7 L 341.3 160.5 Z" fill="#d0a266"/><path d="M 348.0 170.0 Q 354.7 118.8 438.5 148.2 Q 401.1 169.3 360.4 185.4 Z" fill="#d0a266"/><path d="M 368.0 194.1 L 407.4 183.1 L 374.2 207.0 Z" fill="#d0a266"/><path d="M 376.3 218.4 Q 404.4 175.2 467.2 238.0 Q 424.3 240.8 380.7 237.7 Z" fill="#d0a266"/><path d="M 383.8 248.9 L 424.0 256.0 L 383.8 263.1 Z" fill="#d0a266"/><path d="M 380.7 274.3 Q 424.8 247.6 454.1 331.5 Q 414.2 315.3 376.3 293.6 Z" fill="#d0a266"/><path d="M 374.2 305.0 L 407.4 328.9 L 368.0 317.9 Z" fill="#d0a266"/><path d="M 360.4 326.6 Q 411.7 321.7 401.7 410.0 Q 372.8 378.1 348.0 342.0 Z" fill="#d0a266"/><path d="M 341.3 351.5 L 360.7 387.3 L 330.1 360.4 Z" fill="#d0a266"/><path d="M 319.4 364.9 Q 367.8 382.7 320.5 457.9 Q 308.3 416.7 301.6 373.5 Z" fill="#d0a266"/><path d="M 291.4 379.0 L 293.4 419.8 L 277.5 382.2 Z" fill="#d0a266"/><path d="M 265.9 381.6 Q 301.7 418.7 226.5 465.9 Q 233.4 423.5 246.1 381.6 Z" fill="#d0a266"/><path d="M 234.5 382.2 L 218.6 419.8 L 220.6 379.0 Z" fill="#d0a266"/><path d="M 210.4 373.5 Q 226.6 422.4 138.3 432.3 Q 162.9 397.1 192.6 364.9 Z" fill="#d0a266"/><path d="M 181.9 360.4 L 151.3 387.3 L 170.7 351.5 Z" fill="#d0a266"/><path d="M 164.0 342.0 Q 157.3 393.2 73.5 363.8 Q 110.9 342.7 151.6 326.6 Z" fill="#d0a266"/><path d="M 144.0 317.9 L 104.6 328.9 L 137.8 305.0 Z" fill="#d0a266"/><path d="M 135.7 293.6 Q 107.6 336.8 44.8 274.0 Q 87.7 271.2 131.3 274.3 Z" fill="#d0a266"/><path d="M 128.2 263.1 L 88.0 256.0 L 128.2 248.9 Z" fill="#d0a266"/><path d="M 131.3 237.7 Q 87.2 264.4 57.9 180.5 Q 97.8 196.7 135.7 218.4 Z" fill="#d0a266"/><path d="M 137.8 207.0 L 104.6 183.1 L 144.0 194.1 Z" fill="#d0a266"/><path d="M 151.6 185.4 Q 100.3 190.3 110.3 102.0 Q 139.2 133.9 164.0 170.0 Z" fill="#d0a266"/><path d="M 170.7 160.5 L 151.3 124.7 L 181.9 151.6 Z" fill="#d0a266"/><path d="M 192.6 147.1 Q 144.2 129.3 191.5 54.1 Q 203.7 95.3 210.4 138.5 Z" fill="#d0a266"/><path d="M 220.6 133.0 L 218.6 92.2 L 234.5 129.8 Z" fill="#d0a266"/>
  <circle cx="256" cy="256" r="124" fill="none" stroke="#d0a266" stroke-width="4"/>
  <path d="M 285.6 205.2 A 62 62 0 1 0 285.6 306.8 A 54 54 0 0 1 285.6 205.2 Z" fill="none" stroke="#d0a266" stroke-width="4" stroke-linejoin="round"/>
  <path d="M 206 240 Q 218 251 230 241" fill="none" stroke="#d0a266" stroke-width="5" stroke-linecap="round"/>
  <path d="M 216 285 Q 227 294 239 287" fill="none" stroke="#d0a266" stroke-width="5" stroke-linecap="round"/>
  <path d="M 312 202 L 316.5 213.5 L 328 218 L 316.5 222.5 L 312 234 L 307.5 222.5 L 296 218 L 307.5 213.5 Z" fill="#d0a266"/>
  <path d="M 330 262 L 332.8 269.2 L 340 272 L 332.8 274.8 L 330 282 L 327.2 274.8 L 320 272 L 327.2 269.2 Z" fill="#d0a266"/>
  <path d="M 302 300 L 304 305 L 309 307 L 304 309 L 302 314 L 300 309 L 295 307 L 300 305 Z" fill="#d0a266"/>
</g>
</svg>