<svg xmlns="http://www.w3.org/2000/svg" viewBox="0 0 720 1280" preserveAspectRatio="xMidYMid slice">
  <defs>
    <radialGradient id="glow">
      <stop offset="0%" stop-color="#d9a868" stop-opacity="0.22"/>
      <stop offset="60%" stop-color="#d9a868" stop-opacity="0.07"/>
      <stop offset="100%" stop-color="#d9a868" stop-opacity="0"/>
    </radialGradient>
  </defs>
  <rect width="720" height="1280" fill="#0d1420"/>
  
  <g transform="translate(360 560)" fill="none" stroke="#d9a868" stroke-width="1" opacity="0.21">
    <circle r="121.00000000000001" fill="url(#glow)" stroke="none"/>
    <path d="M 0 0 Q 83.6 -92.4 0 -220.0 Q -83.6 -92.4 0 0 Z" transform="rotate(0.0)" /><path d="M 0 0 Q 83.6 -92.4 0 -220.0 Q -83.6 -92.4 0 0 Z" transform="rotate(30.0)" /><path d="M 0 0 Q 83.6 -92.4 0 -220.0 Q -83.6 -92.4 0 0 Z" transform="rotate(60.0)" /><path d="M 0 0 Q 83.6 -92.4 0 -220.0 Q -83.6 -92.4 0 0 Z" transform="rotate(90.0)" /><path d="M 0 0 Q 83.6 -92.4 0 -220.0 Q -83.6 -92.4 0 0 Z" transform="rotate(120.0)" /><path d="M 0 0 Q 83.6 -92.4 0 -220.0 Q -83.6 -92.4 0 0 Z" transform="rotate(150.0)" /><path d="M 0 0 Q 83.6 -92.4 0 -220.0 Q -83.6 -92.4 0 0 Z" transform="rotate(180.0)" /><path d="M 0 0 Q 83.6 -92.4 0 -220.0 Q -83.6 -92.4 0 0 Z" transform="rotate(210.0)" /><path d="M 0 0 Q 83.6 -92.4 0 -220.0 Q -83.6 -92.4 0 0 Z" transform="rotate(240.0)" /><path d="M 0 0 Q 83.6 -92.4 0 -220.0 Q -83.6 -92.4 0 0 Z" transform="rotate(270.0)" /><path d="M 0 0 Q 83.6 -92.4 0 -220.0 Q -83.6 -92.4 0 0 Z" transform="rotate(300.0)" /><path d="M 0 0 Q 83.6 -92.4 0 -220.0 Q -83.6 -92.4 0 0 Z" transform="rotate(330.0)" /><path d="M 0 0 Q 73.6 -81.3 0 -193.6 Q -73.6 -81.3 0 0 Z" transform="rotate(5.0)" /><path d="M 0 0 Q 73.6 -81.3 0 -193.6 Q -73.6 -81.3 0 0 Z" transform="rotate(35.0)" /><path d="M 0 0 Q 73.6 -81.3 0 -193.6 Q -73.6 -81.3 0 0 Z" transform="rotate(65.0)" /><path d="M 0 0 Q 73.6 -81.3 0 -193.6 Q -73.6 -81.3 0 0 Z" transform="rotate(95.0)" /><path d="M 0 0 Q 73.6 -81.3 0 -193.6 Q -73.6 -81.3 0 0 Z" transform="rotate(125.0)" /><path d="M 0 0 Q 73.6 -81.3 0 -193.6 Q -73.6 -81.3 0 0 Z" transform="rotate(155.0)" /><path d="M 0 0 Q 73.6 -81.3 0 -193.6 Q -73.6 -81.3 0 0 Z" transform="rotate(185.0)" /><path d="M 0 0 Q 73.6 -81.3 0 -193.6 Q -73.6 -81.3 0 0 Z" transform="rotate(215.0)" /><path d="M 0 0 Q 73.6 -81.3 0 -193.6 Q -73.6 -81.3 0 0 Z" transform="rotate(245.0)" /><path d="M 0 0 Q 73.6 -81.3 0 -193.6 Q -73.6 -81.3 0 0 Z" transform="rotate(275.0)" /><path d="M 0 0 Q 73.6 -81.3 0 -193.6 Q -73.6 -81.3 0 0 Z" transform="rotate(305.0)" /><path d="M 0 0 Q 73.6 -81.3 0 -193.6 Q -73.6 -81.3 0 0 Z" transform="rotate(335.0)" /><path d="M 0 0 Q 63.5 -70.2 0 -167.2 Q -63.5 -70.2 0 0 Z" transform="rotate(10.0)" /><path d="M 0 0 Q 63.5 -70.2 0 -167.2 Q -63.5 -70.2 0 0 Z" transform="rotate(40.0)" /><path d="M 0 0 Q 63.5 -70.2 0 -167.2 Q -63.5 -70.2 0 0 Z" transform="rotate(70.0)" /><path d="M 0 0 Q 63.5 -70.2 0 -167.2 Q -63.5 -70.2 0 0 Z" transform="rotate(100.0)" /><path d="M 0 0 Q 63.5 -70.2 0 -167.2 Q -63.5 -70.2 0 0 Z" transform="rotate(130.0)" /><path d="M 0 0 Q 63.5 -70.2 0 -167.2 Q -63.5 -70.2 0 0 Z" transform="rotate(160.0)" /><path d="M 0 0 Q 63.5 -70.2 0 -167.2 Q -63.5 -70.2 0 0 Z" transform="rotate(190.0)" /><path d="M 0 0 Q 63.5 -70.2 0 -167.2 Q -63.5 -70.2 0 0 Z" transform="rotate(220.0)" /><path d="M 0 0 Q 63.5 -70.2 0 -167.2 Q -63.5 -70.2 0 0 Z" transform="rotate(250.0)" /><path d="M 0 0 Q 63.5 -70.2 0 -167.2 Q -63.5 -70.2 0 0 Z" transform="rotate(280.0)" /><path d="M 0 0 Q 63.5 -70.2 0 -167.2 Q -63.5 -70.2 0 0 Z" transform="rotate(310.0)" /><path d="M 0 0 Q 63.5 -70.2 0 -167.2 Q -63.5 -70.2 0 0 Z" transform="rotate(340.0)" /><path d="M 0 0 Q 53.5 -59.1 0 -140.8 Q -53.5 -59.1 0 0 Z" transform="rotate(15.0)" /><path d="M 0 0 Q 53.5 -59.1 0 -140.8 Q -53.5 -59.1 0 0 Z" transform="rotate(45.0)" /><path d="M 0 0 Q 53.5 -59.1 0 -140.8 Q -53.5 -59.1 0 0 Z" transform="rotate(75.0)" /><path d="M 0 0 Q 53.5 -59.1 0 -140.8 Q -53.5 -59.1 0 0 Z" transform="rotate(105.0)" /><path d="M 0 0 Q 53.5 -59.1 0 -140.8 Q -53.5 -59.1 0 0 Z" transform="rotate(135.0)" /><path d="M 0 0 Q 53.5 -59.1 0 -140.8 Q -53.5 -59.1 0 0 Z" transform="rotate(165.0)" /><path d="M 0 0 Q 53.5 -59.1 0 -140.8 Q -53.5 -59.1 0 0 Z" transform="rotate(195.0)" /><path d="M 0 0 Q 53.5 -59.1 0 -140.8 Q -53.5 -59.1 0 0 Z" transform="rotate(225.0)" /><path d="M 0 0 Q 53.5 -59.1 0 -140.8 Q -53.5 -59.1 0 0 Z" transform="rotate(255.0)" /><path d="M 0 0 Q 53.5 -59.1 0 -140.8 Q -53.5 -59.1 0 0 Z" transform="rotate(285.0)" /><path d="M 0 0 Q 53.5 -59.1 0 -140.8 Q -53.5 -59.1 0 0 Z" transform="rotate(315.0)" /><path d="M 0 0 Q 53.5 -59.1 0 -140.8 Q -53.5 -59.1 0 0 Z" transform="rotate(345.0)" /><path d="M 0 0 Q 43.5 -48.0 0 -114.4 Q -43.5 -48.0 0 0 Z" transform="rotate(20.0)" /><path d="M 0 0 Q 43.5 -48.0 0 -114.4 Q -43.5 -48.0 0 0 Z" transform="rotate(50.0)" /><path d="M 0 0 Q 43.5 -48.0 0 -114.4 Q -43.5 -48.0 0 0 Z" transform="rotate(80.0)" /><path d="M 0 0 Q 43.5 -48.0 0 -114.4 Q -43.5 -48.0 0 0 Z" transform="rotate(110.0)" /><path d="M 0 0 Q 43.5 -48.0 0 -114.4 Q -43.5 -48.0 0 0 Z" transform="rotate(140.0)" /><path d="M 0 0 Q 43.5 -48.0 0 -114.4 Q -43.5 -48.0 0 0 Z" transform="rotate(170.0)" /><path d="M 0 0 Q 43.5 -48.0 0 -114.4 Q -43.5 -48.0 0 0 Z" transform="rotate(200.0)" /><path d="M 0 0 Q 43.5 -48.0 0 -114.4 Q -43.5 -48.0 0 0 Z" transform="rotate(230.0)" /><path d="M 0 0 Q 43.5 -48.0 0 -114.4 Q -43.5 -48.0 0 0 Z" transform="rotate(260.0)" /><path d="M 0 0 Q 43.5 -48.0 0 -114.4 Q -43.5 -48.0 0 0 Z" transform="rotate(290.0)" /><path d="M 0 0 Q 43.5 -48.0 0 -114.4 Q -43.5 -48.0 0 0 Z" transform="rotate(320.0)" /><path d="M 0 0 Q 43.5 -48.0 0 -114.4 Q -43.5 -48.0 0 0 Z" transform="rotate(350.0)" /><path d="M 0 0 Q 33.4 -37.0 0 -88.0 Q -33.4 -37.0 0 0 Z" transform="rotate(25.0)" /><path d="M 0 0 Q 33.4 -37.0 0 -88.0 Q -33.4 -37.0 0 0 Z" transform="rotate(55.0)" /><path d="M 0 0 Q 33.4 -37.0 0 -88.0 Q -33.4 -37.0 0 0 Z" transform="rotate(85.0)" /><path d="M 0 0 Q 33.4 -37.0 0 -88.0 Q -33.4 -37.0 0 0 Z" transform="rotate(115.0)" /><path d="M 0 0 Q 33.4 -37.0 0 -88.0 Q -33.4 -37.0 0 0 Z" transform="rotate(145.0)" /><path d="M 0 0 Q 33.4 -37.0 0 -88.0 Q -33.4 -37.0 0 0 Z" transform="rotate(175.0)" /><path d="M 0 0 Q 33.4 -37.0 0 -88.0 Q -33.4 -37.0 0 0 Z" transform="rotate(205.0)" /><path d="M 0 0 Q 33.4 -37.0 0 -88.0 Q -33.4 -37.0 0 0 Z" transform="rotate(235.0)" /><path d="M 0 0 Q 33.4 -37.0 0 -88.0 Q -33.4 -37.0 0 0 Z" transform="rotate(265.0)" /><path d="M 0 0 Q 33.4 -37.0 0 -88.0 Q -33.4 -37.0 0 0 Z" transform="rotate(295.0)" /><path d="M 0 0 Q 33.4 -37.0 0 -88.0 Q -33.4 -37.0 0 0 Z" transform="rotate(325.0)" /><path d="M 0 0 Q 33.4 -37.0 0 -88.0 Q -33.4 -37.0 0 0 Z" transform="rotate(355.0)" /><path d="M 0 0 Q 23.4 -25.9 0 -61.6 Q -23.4 -25.9 0 0 Z" transform="rotate(30.0)" /><path d="M 0 0 Q 23.4 -25.9 0 -61.6 Q -23.4 -25.9 0 0 Z" transform="rotate(60.0)" /><path d="M 0 0 Q 23.4 -25.9 0 -61.6 Q -23.4 -25.9 0 0 Z" transform="rotate(90.0)" /><path d="M 0 0 Q 23.4 -25.9 0 -61.6 Q -23.4 -25.9 0 0 Z" transform="rotate(120.0)" /><path d="M 0 0 Q 23.4 -25.9 0 -61.6 Q -23.4 -25.9 0 0 Z" transform="rotate(150.0)" /><path d="M 0 0 Q 23.4 -25.9 0 -61.6 Q -23.4 -25.9 0 0 Z" transform="rotate(180.0)" /><path d="M 0 0 Q 23.4 -25.9 0 -61.6 Q -23.4 -25.9 0 0 Z" transform="rotate(210.0)" /><path d="M 0 0 Q 23.4 -25.9 0 -61.6 Q -23.4 -25.9 0 0 Z" transform="rotate(240.0)" /><path d="M 0 0 Q 23.4 -25.9 0 -61.6 Q -23.4 -25.9 0 0 Z" transform="rotate(270.0)" /><path d="M 0 0 Q 23.4 -25.9 0 -61.6 Q -23.4 -25.9 0 0 Z" transform="rotate(300.0)" /><path d="M 0 0 Q 23.4 -25.9 0 -61.6 Q -23.4 -25.9 0 0 Z" transform="rotate(330.0)" /><path d="M 0 0 Q 23.4 -25.9 0 -61.6 Q -23.4 -25.9 0 0 Z" transform="rotate(360.0)" />
    <g transform="rotate(15)"><path d="M 0 0 Q 60.2 -66.5 0 -158.4 Q -60.2 -66.5 0 0 Z" transform="rotate(0.0)" /><path d="M 0 0 Q 60.2 -66.5 0 -158.4 Q -60.2 -66.5 0 0 Z" transform="rotate(30.0)" /><path d="M 0 0 Q 60.2 -66.5 0 -158.4 Q -60.2 -66.5 0 0 Z" transform="rotate(60.0)" /><path d="M 0 0 Q 60.2 -66.5 0 -158.4 Q -60.2 -66.5 0 0 Z" transform="rotate(90.0)" /><path d="M 0 0 Q 60.2 -66.5 0 -158.4 Q -60.2 -66.5 0 0 Z" transform="rotate(120.0)" /><path d="M 0 0 Q 60.2 -66.5 0 -158.4 Q -60.2 -66.5 0 0 Z" transform="rotate(150.0)" /><path d="M 0 0 Q 60.2 -66.5 0 -158.4 Q -60.2 -66.5 0 0 Z" transform="rotate(180.0)" /><path d="M 0 0 Q 60.2 -66.5 0 -158.4 Q -60.2 -66.5 0 0 Z" transform="rotate(210.0)" /><path d="M 0 0 Q 60.2 -66.5 0 -158.4 Q -60.2 -66.5 0 0 Z" transform="rotate(240.0)" /><path d="M 0 0 Q 60.2 -66.5 0 -158.4 Q -60.2 -66.5 0 0 Z" transform="rotate(270.0)" /><path d="M 0 0 Q 60.2 -66.5 0 -158.4 Q -60.2 -66.5 0 0 Z" transform="rotate(300.0)" /><path d="M 0 0 Q 60.2 -66.5 0 -158.4 Q -60.2 -66.5 0 0 Z" transform="rotate(330.0)" /><path d="M 0 0 Q 53.0 -58.5 0 -139.4 Q -53.0 -58.5 0 0 Z" transform="rotate(5.0)" /><path d="M 0 0 Q 53.0 -58.5 0 -139.4 Q -53.0 -58.5 0 0 Z" transform="rotate(35.0)" /><path d="M 0 0 Q 53.0 -58.5 0 -139.4 Q -53.0 -58.5 0 0 Z" transform="rotate(65.0)" /><path d="M 0 0 Q 53.0 -58.5 0 -139.4 Q -53.0 -58.5 0 0 Z" transform="rotate(95.0)" /><path d="M 0 0 Q 53.0 -58.5 0 -139.4 Q -53.0 -58.5 0 0 Z" transform="rotate(125.0)" /><path d="M 0 0 Q 53.0 -58.5 0 -139.4 Q -53.0 -58.5 0 0 Z" transform="rotate(155.0)" /><path d="M 0 0 Q 53.0 -58.5 0 -139.4 Q -53.0 -58.5 0 0 Z" transform="rotate(185.0)" /><path d="M 0 0 Q 53.0 -58.5 0 -139.4 Q -53.0 -58.5 0 0 Z" transform="rotate(215.0)" /><path d="M 0 0 Q 53.0 -58.5 0 -139.4 Q -53.0 -58.5 0 0 Z" transform="rotate(245.0)" /><path d="M 0 0 Q 53.0 -58.5 0 -139.4 Q -53.0 -58.5 0 0 Z" transform="rotate(275.0)" /><path d="M 0 0 Q 53.0 -58.5 0 -139.4 Q -53.0 -58.5 0 0 Z" transform="rotate(305.0)" /><path d="M 0 0 Q 53.0 -58.5 0 -139.4 Q -53.0 -58.5 0 0 Z" transform="rotate(335.0)" /><path d="M 0 0 Q 45.7 -50.6 0 -120.4 Q -45.7 -50.6 0 0 Z" transform="rotate(10.0)" /><path d="M 0 0 Q 45.7 -50.6 0 -120.4 Q -45.7 -50.6 0 0 Z" transform="rotate(40.0)" /><path d="M 0 0 Q 45.7 -50.6 0 -120.4 Q -45.7 -50.6 0 0 Z" transform="rotate(70.0)" /><path d="M 0 0 Q 45.7 -50.6 0 -120.4 Q -45.7 -50.6 0 0 Z" transform="rotate(100.0)" /><path d="M 0 0 Q 45.7 -50.6 0 -120.4 Q -45.7 -50.6 0 0 Z" transform="rotate(130.0)" /><path d="M 0 0 Q 45.7 -50.6 0 -120.4 Q -45.7 -50.6 0 0 Z" transform="rotate(160.0)" /><path d="M 0 0 Q 45.7 -50.6 0 -120.4 Q -45.7 -50.6 0 0 Z" transform="rotate(190.0)" /><path d="M 0 0 Q 45.7 -50.6 0 -120.4 Q -45.7 -50.6 0 0 Z" transform="rotate(220.0)" /><path d="M 0 0 Q 45.7 -50.6 0 -120.4 Q -45.7 -50.6 0 0 Z" transform="rotate(250.0)" /><path d="M 0 0 Q 45.7 -50.6 0 -120.4 Q -45.7 -50.6 0 0 Z" transform="rotate(280.0)" /><path d="M 0 0 Q 45.7 -50.6 0 -120.4 Q -45.7 -50.6 0 0 Z" transform="rotate(310.0)" /><path d="M 0 0 Q 45.7 -50.6 0 -120.4 Q -45.7 -50.6 0 0 Z" transform="rotate(340.0)" /><path d="M 0 0 Q 38.5 -42.6 0 -101.4 Q -38.5 -42.6 0 0 Z" transform="rotate(15.0)" /><path d="M 0 0 Q 38.5 -42.6 0 -101.4 Q -38.5 -42.6 0 0 Z" transform="rotate(45.0)" /><path d="M 0 0 Q 38.5 -42.6 0 -101.4 Q -38.5 -42.6 0 0 Z" transform="rotate(75.0)" /><path d="M 0 0 Q 38.5 -42.6 0 -101.4 Q -38.5 -42.6 0 0 Z" transform="rotate(105.0)" /><path d="M 0 0 Q 38.5 -42.6 0 -101.4 Q -38.5 -42.6 0 0 Z" transform="rotate(135.0)" /><path d="M 0 0 Q 38.5 -42.6 0 -101.4 Q -38.5 -42.6 0 0 Z" transform="rotate(165.0)" /><path d="M 0 0 Q 38.5 -42.6 0 -101.4 Q -38.5 -42.6 0 0 Z" transform="rotate(195.0)" /><path d="M 0 0 Q 38.5 -42.6 0 -101.4 Q -38.5 -42.6 0 0 Z" transform="rotate(225.0)" /><path d="M 0 0 Q 38.5 -42.6 0 -101.4 Q -38.5 -42.6 0 0 Z" transform="rotate(255.0)" /><path d="M 0 0 Q 38.5 -42.6 0 -101.4 Q -38.5 -42.6 0 0 Z" transform="rotate(285.0)" /><path d="M 0 0 Q 38.5 -42.6 0 -101.4 Q -38.5 -42.6 0 0 Z" transform="rotate(315.0)" /><path d="M 0 0 Q 38.5 -42.6 0 -101.4 Q -38.5 -42.6 0 0 Z" transform="rotate(345.0)" /><path d="M 0 0 Q 31.3 -34.6 0 -82.4 Q -31.3 -34.6 0 0 Z" transform="rotate(20.0)" /><path d="M 0 0 Q 31.3 -34.6 0 -82.4 Q -31.3 -34.6 0 0 Z" transform="rotate(50.0)" /><path d="M 0 0 Q 31.3 -34.6 0 -82.4 Q -31.3 -34.6 0 0 Z" transform="rotate(80.0)" /><path d="M 0 0 Q 31.3 -34.6 0 -82.4 Q -31.3 -34.6 0 0 Z" transform="rotate(110.0)" /><path d="M 0 0 Q 31.3 -34.6 0 -82.4 Q -31.3 -34.6 0 0 Z" transform="rotate(140.0)" /><path d="M 0 0 Q 31.3 -34.6 0 -82.4 Q -31.3 -34.6 0 0 Z" transform="rotate(170.0)" /><path d="M 0 0 Q 31.3 -34.6 0 -82.4 Q -31.3 -34.6 0 0 Z" transform="rotate(200.0)" /><path d="M 0 0 Q 31.3 -34.6 0 -82.4 Q -31.3 -34.6 0 0 Z" transform="rotate(230.0)" /><path d="M 0 0 Q 31.3 -34.6 0 -82.4 Q -31.3 -34.6 0 0 Z" transform="rotate(260.0)" /><path d="M 0 0 Q 31.3 -34.6 0 -82.4 Q -31.3 -34.6 0 0 Z" transform="rotate(290.0)" /><path d="M 0 0 Q 31.3 -34.6 0 -82.4 Q -31.3 -34.6 0 0 Z" transform="rotate(320.0)" /><path d="M 0 0 Q 31.3 -34.6 0 -82.4 Q -31.3 -34.6 0 0 Z" transform="rotate(350.0)" /></g>
  </g>
  
  <g transform="translate(0 0)" fill="none" stroke="#d9a868" stroke-width="1" opacity="0.18">
    
    <path d="M 0 0 Q 76.0 -84.0 0 -200.0 Q -76.0 -84.0 0 0 Z" transform="rotate(0.0)" /><path d="M 0 0 Q 76.0 -84.0 0 -200.0 Q -76.0 -84.0 0 0 Z" transform="rotate(30.0)" /><path d="M 0 0 Q 76.0 -84.0 0 -200.0 Q -76.0 -84.0 0 0 Z" transform="rotate(60.0)" /><path d="M 0 0 Q 76.0 -84.0 0 -200.0 Q -76.0 -84.0 0 0 Z" transform="rotate(90.0)" /><path d="M 0 0 Q 76.0 -84.0 0 -200.0 Q -76.0 -84.0 0 0 Z" transform="rotate(120.0)" /><path d="M 0 0 Q 76.0 -84.0 0 -200.0 Q -76.0 -84.0 0 0 Z" transform="rotate(150.0)" /><path d="M 0 0 Q 76.0 -84.0 0 -200.0 Q -76.0 -84.0 0 0 Z" transform="rotate(180.0)" /><path d="M 0 0 Q 76.0 -84.0 0 -200.0 Q -76.0 -84.0 0 0 Z" transform="rotate(210.0)" /><path d="M 0 0 Q 76.0 -84.0 0 -200.0 Q -76.0 -84.0 0 0 Z" transform="rotate(240.0)" /><path d="M 0 0 Q 76.0 -84.0 0 -200.0 Q -76.0 -84.0 0 0 Z" transform="rotate(270.0)" /><path d="M 0 0 Q 76.0 -84.0 0 -200.0 Q -76.0 -84.0 0 0 Z" transform="rotate(300.0)" /><path d="M 0 0 Q 76.0 -84.0 0 -200.0 Q -76.0 -84.0 0 0 Z" transform="rotate(330.0)" /><path d="M 0 0 Q 66.9 -73.9 0 -176.0 Q -66.9 -73.9 0 0 Z" transform="rotate(5.0)" /><path d="M 0 0 Q 66.9 -73.9 0 -176.0 Q -66.9 -73.9 0 0 Z" transform="rotate(35.0)" /><path d="M 0 0 Q 66.9 -73.9 0 -176.0 Q -66.9 -73.9 0 0 Z" transform="rotate(65.0)" /><path d="M 0 0 Q 66.9 -73.9 0 -176.0 Q -66.9 -73.9 0 0 Z" transform="rotate(95.0)" /><path d="M 0 0 Q 66.9 -73.9 0 -176.0 Q -66.9 -73.9 0 0 Z" transform="rotate(125.0)" /><path d="M 0 0 Q 66.9 -73.9 0 -176.0 Q -66.9 -73.9 0 0 Z" transform="rotate(155.0)" /><path d="M 0 0 Q 66.9 -73.9 0 -176.0 Q -66.9 -73.9 0 0 Z" transform="rotate(185.0)" /><path d="M 0 0 Q 66.9 -73.9 0 -176.0 Q -66.9 -73.9 0 0 Z" transform="rotate(215.0)" /><path d="M 0 0 Q 66.9 -73.9 0 -176.0 Q -66.9 -73.9 0 0 Z" transform="rotate(245.0)" /><path d="M 0 0 Q 66.9 -73.9 0 -176.0 Q -66.9 -73.9 0 0 Z" transform="rotate(275.0)" /><path d="M 0 0 Q 66.9 -73.9 0 -176.0 Q -66.9 -73.9 0 0 Z" transform="rotate(305.0)" /><path d="M 0 0 Q 66.9 -73.9 0 -176.0 Q -66.9 -73.9 0 0 Z" transform="rotate(335.0)" /><path d="M 0 0 Q 57.8 -63.8 0 -152.0 Q -57.8 -63.8 0 0 Z" transform="rotate(10.0)" /><path d="M 0 0 Q 57.8 -63.8 0 -152.0 Q -57.8 -63.8 0 0 Z" transform="rotate(40.0)" /><path d="M 0 0 Q 57.8 -63.8 0 -152.0 Q -57.8 -63.8 0 0 Z" transform="rotate(70.0)" /><path d="M 0 0 Q 57.8 -63.8 0 -152.0 Q -57.8 -63.8 0 0 Z" transform="rotate(100.0)" /><path d="M 0 0 Q 57.8 -63.8 0 -152.0 Q -57.8 -63.8 0 0 Z" transform="rotate(130.0)" /><path d="M 0 0 Q 57.8 -63.8 0 -152.0 Q -57.8 -63.8 0 0 Z" transform="rotate(160.0)" /><path d="M 0 0 Q 57.8 -63.8 0 -152.0 Q -57.8 -63.8 0 0 Z" transform="rotate(190.0)" /><path d="M 0 0 Q 57.8 -63.8 0 -152.0 Q -57.8 -63.8 0 0 Z" transform="rotate(220.0)" /><path d="M 0 0 Q 57.8 -63.8 0 -152.0 Q -57.8 -63.8 0 0 Z" transform="rotate(250.0)" /><path d="M 0 0 Q 57.8 -63.8 0 -152.0 Q -57.8 -63.8 0 0 Z" transform="rotate(280.0)" /><path d="M 0 0 Q 57.8 -63.8 0 -152.0 Q -57.8 -63.8 0 0 Z" transform="rotate(310.0)" /><path d="M 0 0 Q 57.8 -63.8 0 -152.0 Q -57.8 -63.8 0 0 Z" transform="rotate(340.0)" /><path d="M 0 0 Q 48.6 -53.8 0 -128.0 Q -48.6 -53.8 0 0 Z" transform="rotate(15.0)" /><path d="M 0 0 Q 48.6 -53.8 0 -128.0 Q -48.6 -53.8 0 0 Z" transform="rotate(45.0)" /><path d="M 0 0 Q 48.6 -53.8 0 -128.0 Q -48.6 -53.8 0 0 Z" transform="rotate(75.0)" /><path d="M 0 0 Q 48.6 -53.8 0 -128.0 Q -48.6 -53.8 0 0 Z" transform="rotate(105.0)" /><path d="M 0 0 Q 48.6 -53.8 0 -128.0 Q -48.6 -53.8 0 0 Z" transform="rotate(135.0)" /><path d="M 0 0 Q 48.6 -53.8 0 -128.0 Q -48.6 -53.8 0 0 Z" transform="rotate(165.0)" /><path d="M 0 0 Q 48.6 -53.8 0 -128.0 Q -48.6 -53.8 0 0 Z" transform="rotate(195.0)" /><path d="M 0 0 Q 48.6 -53.8 0 -128.0 Q -48.6 -53.8 0 0 Z" transform="rotate(225.0)" /><path d="M 0 0 Q 48.6 -53.8 0 -128.0 Q -48.6 -53.8 0 0 Z" transform="rotate(255.0)" /><path d="M 0 0 Q 48.6 -53.8 0 -128.0 Q -48.6 -53.8 0 0 Z" transform="rotate(285.0)" /><path d="M 0 0 Q 48.6 -53.8 0 -128.0 Q -48.6 -53.8 0 0 Z" transform="rotate(315.0)" /><path d="M 0 0 Q 48.6 -53.8 0 -128.0 Q -48.6 -53.8 0 0 Z" transform="rotate(345.0)" /><path d="M 0 0 Q 39.5 -43.7 0 -104.0 Q -39.5 -43.7 0 0 Z" transform="rotate(20.0)" /><path d="M 0 0 Q 39.5 -43.7 0 -104.0 Q -39.5 -43.7 0 0 Z" transform="rotate(50.0)" /><path d="M 0 0 Q 39.5 -43.7 0 -104.0 Q -39.5 -43.7 0 0 Z" transform="rotate(80.0)" /><path d="M 0 0 Q 39.5 -43.7 0 -104.0 Q -39.5 -43.7 0 0 Z" transform="rotate(110.0)" /><path d="M 0 0 Q 39.5 -43.7 0 -104.0 Q -39.5 -43.7 0 0 Z" transform="rotate(140.0)" /><path d="M 0 0 Q 39.5 -43.7 0 -104.0 Q -39.5 -43.7 0 0 Z" transform="rotate(170.0)" /><path d="M 0 0 Q 39.5 -43.7 0 -104.0 Q -39.5 -43.7 0 0 Z" transform="rotate(200.0)" /><path d="M 0 0 Q 39.5 -43.7 0 -104.0 Q -39.5 -43.7 0 0 Z" transform="rotate(230.0)" /><path d="M 0 0 Q 39.5 -43.7 0 -104.0 Q -39.5 -43.7 0 0 Z" transform="rotate(260.0)" /><path d="M 0 0 Q 39.5 -43.7 0 -104.0 Q -39.5 -43.7 0 0 Z" transform="rotate(290.0)" /><path d="M 0 0 Q 39.5 -43.7 0 -104.0 Q -39.5 -43.7 0 0 Z" transform="rotate(320.0)" /><path d="M 0 0 Q 39.5 -43.7 0 -104.0 Q -39.5 -43.7 0 0 Z" transform="rotate(350.0)" /><path d="M 0 0 Q 30.4 -33.6 0 -80.0 Q -30.4 -33.6 0 0 Z" transform="rotate(25.0)" /><path d="M 0 0 Q 30.4 -33.6 0 -80.0 Q -30.4 -33.6 0 0 Z" transform="rotate(55.0)" /><path d="M 0 0 Q 30.4 -33.6 0 -80.0 Q -30.4 -33.6 0 0 Z" transform="rotate(85.0)" /><path d="M 0 0 Q 30.4 -33.6 0 -80.0 Q -30.4 -33.6 0 0 Z" transform="rotate(115.0)" /><path d="M 0 0 Q 30.4 -33.6 0 -80.0 Q -30.4 -33.6 0 0 Z" transform="rotate(145.0)" /><path d="M 0 0 Q 30.4 -33.6 0 -80.0 Q -30.4 -33.6 0 0 Z" transform="rotate(175.0)" /><path d="M 0 0 Q 30.4 -33.6 0 -80.0 Q -30.4 -33.6 0 0 Z" transform="rotate(205.0)" /><path d="M 0 0 Q 30.4 -33.6 0 -80.0 Q -30.4 -33.6 0 0 Z" transform="rotate(235.0)" /><path d="M 0 0 Q 30.4 -33.6 0 -80.0 Q -30.4 -33.6 0 0 Z" transform="rotate(265.0)" /><path d="M 0 0 Q 30.4 -33.6 0 -80.0 Q -30.4 -33.6 0 0 Z" transform="rotate(295.0)" /><path d="M 0 0 Q 30.4 -33.6 0 -80.0 Q -30.4 -33.6 0 0 Z" transform="rotate(325.0)" /><path d="M 0 0 Q 30.4 -33.6 0 -80.0 Q -30.4 -33.6 0 0 Z" transform="rotate(355.0)" /><path d="M 0 0 Q 21.3 -23.5 0 -56.0 Q -21.3 -23.5 0 0 Z" transform="rotate(30.0)" /><path d="M 0 0 Q 21.3 -23.5 0 -56.0 Q -21.3 -23.5 0 0 Z" transform="rotate(60.0)" /><path d="M 0 0 Q 21.3 -23.5 0 -56.0 Q -21.3 -23.5 0 0 Z" transform="rotate(90.0)" /><path d="M 0 0 Q 21.3 -23.5 0 -56.0 Q -21.3 -23.5 0 0 Z" transform="rotate(120.0)" /><path d="M 0 0 Q 21.3 -23.5 0 -56.0 Q -21.3 -23.5 0 0 Z" transform="rotate(150.0)" /><path d="M 0 0 Q 21.3 -23.5 0 -56.0 Q -21.3 -23.5 0 0 Z" transform="rotate(180.0)" /><path d="M 0 0 Q 21.3 -23.5 0 -56.0 Q -21.3 -23.5 0 0 Z" transform="rotate(210.0)" /><path d="M 0 0 Q 21.3 -23.5 0 -56.0 Q -21.3 -23.5 0 0 Z" transform="rotate(240.0)" /><path d="M 0 0 Q 21.3 -23.5 0 -56.0 Q -21.3 -23.5 0 0 Z" transform="rotate(270.0)" /><path d="M 0 0 Q 21.3 -23.5 0 -56.0 Q -21.3 -23.5 0 0 Z" transform="rotate(300.0)" /><path d="M 0 0 Q 21.3 -23.5 0 -56.0 Q -21.3 -23.5 0 0 Z" transform="rotate(330.0)" /><path d="M 0 0 Q 21.3 -23.5 0 -56.0 Q -21.3 -23.5 0 0 Z" transform="rotate(360.0)" />
    <g transform="rotate(15)"><path d="M 0 0 Q 54.7 -60.5 0 -144.0 Q -54.7 -60.5 0 0 Z" transform="rotate(0.0)" /><path d="M 0 0 Q 54.7 -60.5 0 -144.0 Q -54.7 -60.5 0 0 Z" transform="rotate(30.0)" /><path d="M 0 0 Q 54.7 -60.5 0 -144.0 Q -54.7 -60.5 0 0 Z" transform="rotate(60.0)" /><path d="M 0 0 Q 54.7 -60.5 0 -144.0 Q -54.7 -60.5 0 0 Z" transform="rotate(90.0)" /><path d="M 0 0 Q 54.7 -60.5 0 -144.0 Q -54.7 -60.5 0 0 Z" transform="rotate(120.0)" /><path d="M 0 0 Q 54.7 -60.5 0 -144.0 Q -54.7 -60.5 0 0 Z" transform="rotate(150.0)" /><path d="M 0 0 Q 54.7 -60.5 0 -144.0 Q -54.7 -60.5 0 0 Z" transform="rotate(180.0)" /><path d="M 0 0 Q 54.7 -60.5 0 -144.0 Q -54.7 -60.5 0 0 Z" transform="rotate(210.0)" /><path d="M 0 0 Q 54.7 -60.5 0 -144.0 Q -54.7 -60.5 0 0 Z" transform="rotate(240.0)" /><path d="M 0 0 Q 54.7 -60.5 0 -144.0 Q -54.7 -60.5 0 0 Z" transform="rotate(270.0)" /><path d="M 0 0 Q 54.7 -60.5 0 -144.0 Q -54.7 -60.5 0 0 Z" transform="rotate(300.0)" /><path d="M 0 0 Q 54.7 -60.5 0 -144.0 Q -54.7 -60.5 0 0 Z" transform="rotate(330.0)" /><path d="M 0 0 Q 48.2 -53.2 0 -126.7 Q -48.2 -53.2 0 0 Z" transform="rotate(5.0)" /><path d="M 0 0 Q 48.2 -53.2 0 -126.7 Q -48.2 -53.2 0 0 Z" transform="rotate(35.0)" /><path d="M 0 0 Q 48.2 -53.2 0 -126.7 Q -48.2 -53.2 0 0 Z" transform="rotate(65.0)" /><path d="M 0 0 Q 48.2 -53.2 0 -126.7 Q -48.2 -53.2 0 0 Z" transform="rotate(95.0)" /><path d="M 0 0 Q 48.2 -53.2 0 -126.7 Q -48.2 -53.2 0 0 Z" transform="rotate(125.0)" /><path d="M 0 0 Q 48.2 -53.2 0 -126.7 Q -48.2 -53.2 0 0 Z" transform="rotate(155.0)" /><path d="M 0 0 Q 48.2 -53.2 0 -126.7 Q -48.2 -53.2 0 0 Z" transform="rotate(185.0)" /><path d="M 0 0 Q 48.2 -53.2 0 -126.7 Q -48.2 -53.2 0 0 Z" transform="rotate(215.0)" /><path d="M 0 0 Q 48.2 -53.2 0 -126.7 Q -48.2 -53.2 0 0 Z" transform="rotate(245.0)" /><path d="M 0 0 Q 48.2 -53.2 0 -126.7 Q -48.2 -53.2 0 0 Z" transform="rotate(275.0)" /><path d="M 0 0 Q 48.2 -53.2 0 -126.7 Q -48.2 -53.2 0 0 Z" transform="rotate(305.0)" /><path d="M 0 0 Q 48.2 -53.2 0 -126.7 Q -48.2 -53.2 0 0 Z" transform="rotate(335.0)" /><path d="M 0 0 Q 41.6 -46.0 0 -109.4 Q -41.6 -46.0 0 0 Z" transform="rotate(10.0)" /><path d="M 0 0 Q 41.6 -46.0 0 -109.4 Q -41.6 -46.0 0 0 Z" transform="rotate(40.0)" /><path d="M 0 0 Q 41.6 -46.0 0 -109.4 Q -41.6 -46.0 0 0 Z" transform="rotate(70.0)" /><path d="M 0 0 Q 41.6 -46.0 0 -109.4 Q -41.6 -46.0 0 0 Z" transform="rotate(100.0)" /><path d="M 0 0 Q 41.6 -46.0 0 -109.4 Q -41.6 -46.0 0 0 Z" transform="rotate(130.0)" /><path d="M 0 0 Q 41.6 -46.0 0 -109.4 Q -41.6 -46.0 0 0 Z" transform="rotate(160.0)" /><path d="M 0 0 Q 41.6 -46.0 0 -109.4 Q -41.6 -46.0 0 0 Z" transform="rotate(190.0)" /><path d="M 0 0 Q 41.6 -46.0 0 -109.4 Q -41.6 -46.0 0 0 Z" transform="rotate(220.0)" /><path d="M 0 0 Q 41.6 -46.0 0 -109.4 Q -41.6 -46.0 0 0 Z" transform="rotate(250.0)" /><path d="M 0 0 Q 41.6 -46.0 0 -109.4 Q -41.6 -46.0 0 0 Z" transform="rotate(280.0)" /><path d="M 0 0 Q 41.6 -46.0 0 -109.4 Q -41.6 -46.0 0 0 Z" transform="rotate(310.0)" /><path d="M 0 0 Q 41.6 -46.0 0 -109.4 Q -41.6 -46.0 0 0 Z" transform="rotate(340.0)" /><path d="M 0 0 Q 35.0 -38.7 0 -92.2 Q -35.0 -38.7 0 0 Z" transform="rotate(15.0)" /><path d="M 0 0 Q 35.0 -38.7 0 -92.2 Q -35.0 -38.7 0 0 Z" transform="rotate(45.0)" /><path d="M 0 0 Q 35.0 -38.7 0 -92.2 Q -35.0 -38.7 0 0 Z" transform="rotate(75.0)" /><path d="M 0 0 Q 35.0 -38.7 0 -92.2 Q -35.0 -38.7 0 0 Z" transform="rotate(105.0)" /><path d="M 0 0 Q 35.0 -38.7 0 -92.2 Q -35.0 -38.7 0 0 Z" transform="rotate(135.0)" /><path d="M 0 0 Q 35.0 -38.7 0 -92.2 Q -35.0 -38.7 0 0 Z" transform="rotate(165.0)" /><path d="M 0 0 Q 35.0 -38.7 0 -92.2 Q -35.0 -38.7 0 0 Z" transform="rotate(195.0)" /><path d="M 0 0 Q 35.0 -38.7 0 -92.2 Q -35.0 -38.7 0 0 Z" transform="rotate(225.0)" /><path d="M 0 0 Q 35.0 -38.7 0 -92.2 Q -35.0 -38.7 0 0 Z" transform="rotate(255.0)" /><path d="M 0 0 Q 35.0 -38.7 0 -92.2 Q -35.0 -38.7 0 0 Z" transform="rotate(285.0)" /><path d="M 0 0 Q 35.0 -38.7 0 -92.2 Q -35.0 -38.7 0 0 Z" transform="rotate(315.0)" /><path d="M 0 0 Q 35.0 -38.7 0 -92.2 Q -35.0 -38.7 0 0 Z" transform="rotate(345.0)" /><path d="M 0 0 Q 28.5 -31.4 0 -74.9 Q -28.5 -31.4 0 0 Z" transform="rotate(20.0)" /><path d="M 0 0 Q 28.5 -31.4 0 -74.9 Q -28.5 -31.4 0 0 Z" transform="rotate(50.0)" /><path d="M 0 0 Q 28.5 -31.4 0 -74.9 Q -28.5 -31.4 0 0 Z" transform="rotate(80.0)" /><path d="M 0 0 Q 28.5 -31.4 0 -74.9 Q -28.5 -31.4 0 0 Z" transform="rotate(110.0)" /><path d="M 0 0 Q 28.5 -31.4 0 -74.9 Q -28.5 -31.4 0 0 Z" transform="rotate(140.0)" /><path d="M 0 0 Q 28.5 -31.4 0 -74.9 Q -28.5 -31.4 0 0 Z" transform="rotate(170.0)" /><path d="M 0 0 Q 28.5 -31.4 0 -74.9 Q -28.5 -31.4 0 0 Z" transform="rotate(200.0)" /><path d="M 0 0 Q 28.5 -31.4 0 -74.9 Q -28.5 -31.4 0 0 Z" transform="rotate(230.0)" /><path d="M 0 0 Q 28.5 -31.4 0 -74.9 Q -28.5 -31.4 0 0 Z" transform="rotate(260.0)" /><path d="M 0 0 Q 28.5 -31.4 0 -74.9 Q -28.5 -31.4 0 0 Z" transform="rotate(290.0)" /><path d="M 0 0 Q 28.5 -31.4 0 -74.9 Q -28.5 -31.4 0 0 Z" transform="rotate(320.0)" /><path d="M 0 0 Q 28.5 -31.4 0 -74.9 Q -28.5 -31.4 0 0 Z" transform="rotate(350.0)" /></g>
  </g>
  
  <g transform="translate(720 0)" fill="none" stroke="#d9a868" stroke-width="1" opacity="0.18">
    
    <path d="M 0 0 Q 76.0 -84.0 0 -200.0 Q -76.0 -84.0 0 0 Z" transform="rotate(0.0)" /><path d="M 0 0 Q 76.0 -84.0 0 -200.0 Q -76.0 -84.0 0 0 Z" transform="rotate(30.0)" /><path d="M 0 0 Q 76.0 -84.0 0 -200.0 Q -76.0 -84.0 0 0 Z" transform="rotate(60.0)" /><path d="M 0 0 Q 76.0 -84.0 0 -200.0 Q -76.0 -84.0 0 0 Z" transform="rotate(90.0)" /><path d="M 0 0 Q 76.0 -84.0 0 -200.0 Q -76.0 -84.0 0 0 Z" transform="rotate(120.0)" /><path d="M 0 0 Q 76.0 -84.0 0 -200.0 Q -76.0 -84.0 0 0 Z" transform="rotate(150.0)" /><path d="M 0 0 Q 76.0 -84.0 0 -200.0 Q -76.0 -84.0 0 0 Z" transform="rotate(180.0)" /><path d="M 0 0 Q 76.0 -84.0 0 -200.0 Q -76.0 -84.0 0 0 Z" transform="rotate(210.0)" /><path d="M 0 0 Q 76.0 -84.0 0 -200.0 Q -76.0 -84.0 0 0 Z" transform="rotate(240.0)" /><path d="M 0 0 Q 76.0 -84.0 0 -200.0 Q -76.0 -84.0 0 0 Z" transform="rotate(270.0)" /><path d="M 0 0 Q 76.0 -84.0 0 -200.0 Q -76.0 -84.0 0 0 Z" transform="rotate(300.0)" /><path d="M 0 0 Q 76.0 -84.0 0 -200.0 Q -76.0 -84.0 0 0 Z" transform="rotate(330.0)" /><path d="M 0 0 Q 66.9 -73.9 0 -176.0 Q -66.9 -73.9 0 0 Z" transform="rotate(5.0)" /><path d="M 0 0 Q 66.9 -73.9 0 -176.0 Q -66.9 -73.9 0 0 Z" transform="rotate(35.0)" /><path d="M 0 0 Q 66.9 -73.9 0 -176.0 Q -66.9 -73.9 0 0 Z" transform="rotate(65.0)" /><path d="M 0 0 Q 66.9 -73.9 0 -176.0 Q -66.9 -73.9 0 0 Z" transform="rotate(95.0)" /><path d="M 0 0 Q 66.9 -73.9 0 -176.0 Q -66.9 -73.9 0 0 Z" transform="rotate(125.0)" /><path d="M 0 0 Q 66.9 -73.9 0 -176.0 Q -66.9 -73.9 0 0 Z" transform="rotate(155.0)" /><path d="M 0 0 Q 66.9 -73.9 0 -176.0 Q -66.9 -73.9 0 0 Z" transform="rotate(185.0)" /><path d="M 0 0 Q 66.9 -73.9 0 -176.0 Q -66.9 -73.9 0 0 Z" transform="rotate(215.0)" /><path d="M 0 0 Q 66.9 -73.9 0 -176.0 Q -66.9 -73.9 0 0 Z" transform="rotate(245.0)" /><path d="M 0 0 Q 66.9 -73.9 0 -176.0 Q -66.9 -73.9 0 0 Z" transform="rotate(275.0)" /><path d="M 0 0 Q 66.9 -73.9 0 -176.0 Q -66.9 -73.9 0 0 Z" transform="rotate(305.0)" /><path d="M 0 0 Q 66.9 -73.9 0 -176.0 Q -66.9 -73.9 0 0 Z" transform="rotate(335.0)" /><path d="M 0 0 Q 57.8 -63.8 0 -152.0 Q -57.8 -63.8 0 0 Z" transform="rotate(10.0)" /><path d="M 0 0 Q 57.8 -63.8 0 -152.0 Q -57.8 -63.8 0 0 Z" transform="rotate(40.0)" /><path d="M 0 0 Q 57.8 -63.8 0 -152.0 Q -57.8 -63.8 0 0 Z" transform="rotate(70.0)" /><path d="M 0 0 Q 57.8 -63.8 0 -152.0 Q -57.8 -63.8 0 0 Z" transform="rotate(100.0)" /><path d="M 0 0 Q 57.8 -63.8 0 -152.0 Q -57.8 -63.8 0 0 Z" transform="rotate(130.0)" /><path d="M 0 0 Q 57.8 -63.8 0 -152.0 Q -57.8 -63.8 0 0 Z" transform="rotate(160.0)" /><path d="M 0 0 Q 57.8 -63.8 0 -152.0 Q -57.8 -63.8 0 0 Z" transform="rotate(190.0)" /><path d="M 0 0 Q 57.8 -63.8 0 -152.0 Q -57.8 -63.8 0 0 Z" transform="rotate(220.0)" /><path d="M 0 0 Q 57.8 -63.8 0 -152.0 Q -57.8 -63.8 0 0 Z" transform="rotate(250.0)" /><path d="M 0 0 Q 57.8 -63.8 0 -152.0 Q -57.8 -63.8 0 0 Z" transform="rotate(280.0)" /><path d="M 0 0 Q 57.8 -63.8 0 -152.0 Q -57.8 -63.8 0 0 Z" transform="rotate(310.0)" /><path d="M 0 0 Q 57.8 -63.8 0 -152.0 Q -57.8 -63.8 0 0 Z" transform="rotate(340.0)" /><path d="M 0 0 Q 48.6 -53.8 0 -128.0 Q -48.6 -53.8 0 0 Z" transform="rotate(15.0)" /><path d="M 0 0 Q 48.6 -53.8 0 -128.0 Q -48.6 -53.8 0 0 Z" transform="rotate(45.0)" /><path d="M 0 0 Q 48.6 -53.8 0 -128.0 Q -48.6 -53.8 0 0 Z" transform="rotate(75.0)" /><path d="M 0 0 Q 48.6 -53.8 0 -128.0 Q -48.6 -53.8 0 0 Z" transform="rotate(105.0)" /><path d="M 0 0 Q 48.6 -53.8 0 -128.0 Q -48.6 -53.8 0 0 Z" transform="rotate(135.0)" /><path d="M 0 0 Q 48.6 -53.8 0 -128.0 Q -48.6 -53.8 0 0 Z" transform="rotate(165.0)" /><path d="M 0 0 Q 48.6 -53.8 0 -128.0 Q -48.6 -53.8 0 0 Z" transform="rotate(195.0)" /><path d="M 0 0 Q 48.6 -53.8 0 -128.0 Q -48.6 -53.8 0 0 Z" transform="rotate(225.0)" /><path d="M 0 0 Q 48.6 -53.8 0 -128.0 Q -48.6 -53.8 0 0 Z" transform="rotate(255.0)" /><path d="M 0 0 Q 48.6 -53.8 0 -128.0 Q -48.6 -53.8 0 0 Z" transform="rotate(285.0)" /><path d="M 0 0 Q 48.6 -53.8 0 -128.0 Q -48.6 -53.8 0 0 Z" transform="rotate(315.0)" /><path d="M 0 0 Q 48.6 -53.8 0 -128.0 Q -48.6 -53.8 0 0 Z" transform="rotate(345.0)" /><path d="M 0 0 Q 39.5 -43.7 0 -104.0 Q -39.5 -43.7 0 0 Z" transform="rotate(20.0)" /><path d="M 0 0 Q 39.5 -43.7 0 -104.0 Q -39.5 -43.7 0 0 Z" transform="rotate(50.0)" /><path d="M 0 0 Q 39.5 -43.7 0 -104.0 Q -39.5 -43.7 0 0 Z" transform="rotate(80.0)" /><path d="M 0 0 Q 39.5 -43.7 0 -104.0 Q -39.5 -43.7 0 0 Z" transform="rotate(110.0)" /><path d="M 0 0 Q 39.5 -43.7 0 -104.0 Q -39.5 -43.7 0 0 Z" transform="rotate(140.0)" /><path d="M 0 0 Q 39.5 -43.7 0 -104.0 Q -39.5 -43.7 0 0 Z" transform="rotate(170.0)" /><path d="M 0 0 Q 39.5 -43.7 0 -104.0 Q -39.5 -43.7 0 0 Z" transform="rotate(200.0)" /><path d="M 0 0 Q 39.5 -43.7 0 -104.0 Q -39.5 -43.7 0 0 Z" transform="rotate(230.0)" /><path d="M 0 0 Q 39.5 -43.7 0 -104.0 Q -39.5 -43.7 0 0 Z" transform="rotate(260.0)" /><path d="M 0 0 Q 39.5 -43.7 0 -104.0 Q -39.5 -43.7 0 0 Z" transform="rotate(290.0)" /><path d="M 0 0 Q 39.5 -43.7 0 -104.0 Q -39.5 -43.7 0 0 Z" transform="rotate(320.0)" /><path d="M 0 0 Q 39.5 -43.7 0 -104.0 Q -39.5 -43.7 0 0 Z" transform="rotate(350.0)" /><path d="M 0 0 Q 30.4 -33.6 0 -80.0 Q -30.4 -33.6 0 0 Z" transform="rotate(25.0)" /><path d="M 0 0 Q 30.4 -33.6 0 -80.0 Q -30.4 -33.6 0 0 Z" transform="rotate(55.0)" /><path d="M 0 0 Q 30.4 -33.6 0 -80.0 Q -30.4 -33.6 0 0 Z" transform="rotate(85.0)" /><path d="M 0 0 Q 30.4 -33.6 0 -80.0 Q -30.4 -33.6 0 0 Z" transform="rotate(115.0)" /><path d="M 0 0 Q 30.4 -33.6 0 -80.0 Q -30.4 -33.6 0 0 Z" transform="rotate(145.0)" /><path d="M 0 0 Q 30.4 -33.6 0 -80.0 Q -30.4 -33.6 0 0 Z" transform="rotate(175.0)" /><path d="M 0 0 Q 30.4 -33.6 0 -80.0 Q -30.4 -33.6 0 0 Z" transform="rotate(205.0)" /><path d="M 0 0 Q 30.4 -33.6 0 -80.0 Q -30.4 -33.6 0 0 Z" transform="rotate(235.0)" /><path d="M 0 0 Q 30.4 -33.6 0 -80.0 Q -30.4 -33.6 0 0 Z" transform="rotate(265.0)" /><path d="M 0 0 Q 30.4 -33.6 0 -80.0 Q -30.4 -33.6 0 0 Z" transform="rotate(295.0)" /><path d="M 0 0 Q 30.4 -33.6 0 -80.0 Q -30.4 -33.6 0 0 Z" transform="rotate(325.0)" /><path d="M 0 0 Q 30.4 -33.6 0 -80.0 Q -30.4 -33.6 0 0 Z" transform="rotate(355.0)" /><path d="M 0 0 Q 21.3 -23.5 0 -56.0 Q -21.3 -23.5 0 0 Z" transform="rotate(30.0)" /><path d="M 0 0 Q 21.3 -23.5 0 -56.0 Q -21.3 -23.5 0 0 Z" transform="rotate(60.0)" /><path d="M 0 0 Q 21.3 -23.5 0 -56.0 Q -21.3 -23.5 0 0 Z" transform="rotate(90.0)" /><path d="M 0 0 Q 21.3 -23.5 0 -56.0 Q -21.3 -23.5 0 0 Z" transform="rotate(120.0)" /><path d="M 0 0 Q 21.3 -23.5 0 -56.0 Q -21.3 -23.5 0 0 Z" transform="rotate(150.0)" /><path d="M 0 0 Q 21.3 -23.5 0 -56.0 Q -21.3 -23.5 0 0 Z" transform="rotate(180.0)" /><path d="M 0 0 Q 21.3 -23.5 0 -56.0 Q -21.3 -23.5 0 0 Z" transform="rotate(210.0)" /><path d="M 0 0 Q 21.3 -23.5 0 -56.0 Q -21.3 -23.5 0 0 Z" transform="rotate(240.0)" /><path d="M 0 0 Q 21.3 -23.5 0 -56.0 Q -21.3 -23.5 0 0 Z" transform="rotate(270.0)" /><path d="M 0 0 Q 21.3 -23.5 0 -56.0 Q -21.3 -23.5 0 0 Z" transform="rotate(300.0)" /><path d="M 0 0 Q 21.3 -23.5 0 -56.0 Q -21.3 -23.5 0 0 Z" transform="rotate(330.0)" /><path d="M 0 0 Q 21.3 -23.5 0 -56.0 Q -21.3 -23.5 0 0 Z" transform="rotate(360.0)" />
    <g transform="rotate(15)"><path d="M 0 0 Q 54.7 -60.5 0 -144.0 Q -54.7 -60.5 0 0 Z" transform="rotate(0.0)" /><path d="M 0 0 Q 54.7 -60.5 0 -144.0 Q -54.7 -60.5 0 0 Z" transform="rotate(30.0)" /><path d="M 0 0 Q 54.7 -60.5 0 -144.0 Q -54.7 -60.5 0 0 Z" transform="rotate(60.0)" /><path d="M 0 0 Q 54.7 -60.5 0 -144.0 Q -54.7 -60.5 0 0 Z" transform="rotate(90.0)" /><path d="M 0 0 Q 54.7 -60.5 0 -144.0 Q -54.7 -60.5 0 0 Z" transform="rotate(120.0)" /><path d="M 0 0 Q 54.7 -60.5 0 -144.0 Q -54.7 -60.5 0 0 Z" transform="rotate(150.0)" /><path d="M 0 0 Q 54.7 -60.5 0 -144.0 Q -54.7 -60.5 0 0 Z" transform="rotate(180.0)" /><path d="M 0 0 Q 54.7 -60.5 0 -144.0 Q -54.7 -60.5 0 0 Z" transform="rotate(210.0)" /><path d="M 0 0 Q 54.7 -60.5 0 -144.0 Q -54.7 -60.5 0 0 Z" transform="rotate(240.0)" /><path d="M 0 0 Q 54.7 -60.5 0 -144.0 Q -54.7 -60.5 0 0 Z" transform="rotate(270.0)" /><path d="M 0 0 Q 54.7 -60.5 0 -144.0 Q -54.7 -60.5 0 0 Z" transform="rotate(300.0)" /><path d="M 0 0 Q 54.7 -60.5 0 -144.0 Q -54.7 -60.5 0 0 Z" transform="rotate(330.0)" /><path d="M 0 0 Q 48.2 -53.2 0 -126.7 Q -48.2 -53.2 0 0 Z" transform="rotate(5.0)" /><path d="M 0 0 Q 48.2 -53.2 0 -126.7 Q -48.2 -53.2 0 0 Z" transform="rotate(35.0)" /><path d="M 0 0 Q 48.2 -53.2 0 -126.7 Q -48.2 -53.2 0 0 Z" transform="rotate(65.0)" /><path d="M 0 0 Q 48.2 -53.2 0 -126.7 Q -48.2 -53.2 0 0 Z" transform="rotate(95.0)" /><path d="M 0 0 Q 48.2 -53.2 0 -126.7 Q -48.2 -53.2 0 0 Z" transform="rotate(125.0)" /><path d="M 0 0 Q 48.2 -53.2 0 -126.7 Q -48.2 -53.2 0 0 Z" transform="rotate(155.0)" /><path d="M 0 0 Q 48.2 -53.2 0 -126.7 Q -48.2 -53.2 0 0 Z" transform="rotate(185.0)" /><path d="M 0 0 Q 48.2 -53.2 0 -126.7 Q -48.2 -53.2 0 0 Z" transform="rotate(215.0)" /><path d="M 0 0 Q 48.2 -53.2 0 -126.7 Q -48.2 -53.2 0 0 Z" transform="rotate(245.0)" /><path d="M 0 0 Q 48.2 -53.2 0 -126.7 Q -48.2 -53.2 0 0 Z" transform="rotate(275.0)" /><path d="M 0 0 Q 48.2 -53.2 0 -126.7 Q -48.2 -53.2 0 0 Z" transform="rotate(305.0)" /><path d="M 0 0 Q 48.2 -53.2 0 -126.7 Q -48.2 -53.2 0 0 Z" transform="rotate(335.0)" /><path d="M 0 0 Q 41.6 -46.0 0 -109.4 Q -41.6 -46.0 0 0 Z" transform="rotate(10.0)" /><path d="M 0 0 Q 41.6 -46.0 0 -109.4 Q -41.6 -46.0 0 0 Z" transform="rotate(40.0)" /><path d="M 0 0 Q 41.6 -46.0 0 -109.4 Q -41.6 -46.0 0 0 Z" transform="rotate(70.0)" /><path d="M 0 0 Q 41.6 -46.0 0 -109.4 Q -41.6 -46.0 0 0 Z" transform="rotate(100.0)" /><path d="M 0 0 Q 41.6 -46.0 0 -109.4 Q -41.6 -46.0 0 0 Z" transform="rotate(130.0)" /><path d="M 0 0 Q 41.6 -46.0 0 -109.4 Q -41.6 -46.0 0 0 Z" transform="rotate(160.0)" /><path d="M 0 0 Q 41.6 -46.0 0 -109.4 Q -41.6 -46.0 0 0 Z" transform="rotate(190.0)" /><path d="M 0 0 Q 41.6 -46.0 0 -109.4 Q -41.6 -46.0 0 0 Z" transform="rotate(220.0)" /><path d="M 0 0 Q 41.6 -46.0 0 -109.4 Q -41.6 -46.0 0 0 Z" transform="rotate(250.0)" /><path d="M 0 0 Q 41.6 -46.0 0 -109.4 Q -41.6 -46.0 0 0 Z" transform="rotate(280.0)" /><path d="M 0 0 Q 41.6 -46.0 0 -109.4 Q -41.6 -46.0 0 0 Z" transform="rotate(310.0)" /><path d="M 0 0 Q 41.6 -46.0 0 -109.4 Q -41.6 -46.0 0 0 Z" transform="rotate(340.0)" /><path d="M 0 0 Q 35.0 -38.7 0 -92.2 Q -35.0 -38.7 0 0 Z" transform="rotate(15.0)" /><path d="M 0 0 Q 35.0 -38.7 0 -92.2 Q -35.0 -38.7 0 0 Z" transform="rotate(45.0)" /><path d="M 0 0 Q 35.0 -38.7 0 -92.2 Q -35.0 -38.7 0 0 Z" transform="rotate(75.0)" /><path d="M 0 0 Q 35.0 -38.7 0 -92.2 Q -35.0 -38.7 0 0 Z" transform="rotate(105.0)" /><path d="M 0 0 Q 35.0 -38.7 0 -92.2 Q -35.0 -38.7 0 0 Z" transform="rotate(135.0)" /><path d="M 0 0 Q 35.0 -38.7 0 -92.2 Q -35.0 -38.7 0 0 Z" transform="rotate(165.0)" /><path d="M 0 0 Q 35.0 -38.7 0 -92.2 Q -35.0 -38.7 0 0 Z" transform="rotate(195.0)" /><path d="M 0 0 Q 35.0 -38.7 0 -92.2 Q -35.0 -38.7 0 0 Z" transform="rotate(225.0)" /><path d="M 0 0 Q 35.0 -38.7 0 -92.2 Q -35.0 -38.7 0 0 Z" transform="rotate(255.0)" /><path d="M 0 0 Q 35.0 -38.7 0 -92.2 Q -35.0 -38.7 0 0 Z" transform="rotate(285.0)" /><path d="M 0 0 Q 35.0 -38.7 0 -92.2 Q -35.0 -38.7 0 0 Z" transform="rotate(315.0)" /><path d="M 0 0 Q 35.0 -38.7 0 -92.2 Q -35.0 -38.7 0 0 Z" transform="rotate(345.0)" /><path d="M 0 0 Q 28.5 -31.4 0 -74.9 Q -28.5 -31.4 0 0 Z" transform="rotate(20.0)" /><path d="M 0 0 Q 28.5 -31.4 0 -74.9 Q -28.5 -31.4 0 0 Z" transform="rotate(50.0)" /><path d="M 0 0 Q 28.5 -31.4 0 -74.9 Q -28.5 -31.4 0 0 Z" transform="rotate(80.0)" /><path d="M 0 0 Q 28.5 -31.4 0 -74.9 Q -28.5 -31.4 0 0 Z" transform="rotate(110.0)" /><path d="M 0 0 Q 28.5 -31.4 0 -74.9 Q -28.5 -31.4 0 0 Z" transform="rotate(140.0)" /><path d="M 0 0 Q 28.5 -31.4 0 -74.9 Q -28.5 -31.4 0 0 Z" transform="rotate(170.0)" /><path d="M 0 0 Q 28.5 -31.4 0 -74.9 Q -28.5 -31.4 0 0 Z" transform="rotate(200.0)" /><path d="M 0 0 Q 28.5 -31.4 0 -74.9 Q -28.5 -31.4 0 0 Z" transform="rotate(230.0)" /><path d="M 0 0 Q 28.5 -31.4 0 -74.9 Q -28.5 -31.4 0 0 Z" transform="rotate(260.0)" /><path d="M 0 0 Q 28.5 -31.4 0 -74.9 Q -28.5 -31.4 0 0 Z" transform="rotate(290.0)" /><path d="M 0 0 Q 28.5 -31.4 0 -74.9 Q -28.5 -31.4 0 0 Z" transform="rotate(320.0)" /><path d="M 0 0 Q 28.5 -31.4 0 -74.9 Q -28.5 -31.4 0 0 Z" transform="rotate(350.0)" /></g>
  </g>
  
  <g transform="translate(0 1280)" fill="none" stroke="#d9a868" stroke-width="1" opacity="0.18">
    
    <path d="M 0 0 Q 76.0 -84.0 0 -200.0 Q -76.0 -84.0 0 0 Z" transform="rotate(0.0)" /><path d="M 0 0 Q 76.0 -84.0 0 -200.0 Q -76.0 -84.0 0 0 Z" transform="rotate(30.0)" /><path d="M 0 0 Q 76.0 -84.0 0 -200.0 Q -76.0 -84.0 0 0 Z" transform="rotate(60.0)" /><path d="M 0 0 Q 76.0 -84.0 0 -200.0 Q -76.0 -84.0 0 0 Z" transform="rotate(90.0)" /><path d="M 0 0 Q 76.0 -84.0 0 -200.0 Q -76.0 -84.0 0 0 Z" transform="rotate(120.0)" /><path d="M 0 0 Q 76.0 -84.0 0 -200.0 Q -76.0 -84.0 0 0 Z" transform="rotate(150.0)" /><path d="M 0 0 Q 76.0 -84.0 0 -200.0 Q -76.0 -84.0 0 0 Z" transform="rotate(180.0)" /><path d="M 0 0 Q 76.0 -84.0 0 -200.0 Q -76.0 -84.0 0 0 Z" transform="rotate(210.0)" /><path d="M 0 0 Q 76.0 -84.0 0 -200.0 Q -76.0 -84.0 0 0 Z" transform="rotate(240.0)" /><path d="M 0 0 Q 76.0 -84.0 0 -200.0 Q -76.0 -84.0 0 0 Z" transform="rotate(270.0)" /><path d="M 0 0 Q 76.0 -84.0 0 -200.0 Q -76.0 -84.0 0 0 Z" transform="rotate(300.0)" /><path d="M 0 0 Q 76.0 -84.0 0 -200.0 Q -76.0 -84.0 0 0 Z" transform="rotate(330.0)" /><path d="M 0 0 Q 66.9 -73.9 0 -176.0 Q -66.9 -73.9 0 0 Z" transform="rotate(5.0)" /><path d="M 0 0 Q 66.9 -73.9 0 -176.0 Q -66.9 -73.9 0 0 Z" transform="rotate(35.0)" /><path d="M 0 0 Q 66.9 -73.9 0 -176.0 Q -66.9 -73.9 0 0 Z" transform="rotate(65.0)" /><path d="M 0 0 Q 66.9 -73.9 0 -176.0 Q -66.9 -73.9 0 0 Z" transform="rotate(95.0)" /><path d="M 0 0 Q 66.9 -73.9 0 -176.0 Q -66.9 -73.9 0 0 Z" transform="rotate(125.0)" /><path d="M 0 0 Q 66.9 -73.9 0 -176.0 Q -66.9 -73.9 0 0 Z" transform="rotate(155.0)" /><path d="M 0 0 Q 66.9 -73.9 0 -176.0 Q -66.9 -73.9 0 0 Z" transform="rotate(185.0)" /><path d="M 0 0 Q 66.9 -73.9 0 -176.0 Q -66.9 -73.9 0 0 Z" transform="rotate(215.0)" /><path d="M 0 0 Q 66.9 -73.9 0 -176.0 Q -66.9 -73.9 0 0 Z" transform="rotate(245.0)" /><path d="M 0 0 Q 66.9 -73.9 0 -176.0 Q -66.9 -73.9 0 0 Z" transform="rotate(275.0)" /><path d="M 0 0 Q 66.9 -73.9 0 -176.0 Q -66.9 -73.9 0 0 Z" transform="rotate(305.0)" /><path d="M 0 0 Q 66.9 -73.9 0 -176.0 Q -66.9 -73.9 0 0 Z" transform="rotate(335.0)" /><path d="M 0 0 Q 57.8 -63.8 0 -152.0 Q -57.8 -63.8 0 0 Z" transform="rotate(10.0)" /><path d="M 0 0 Q 57.8 -63.8 0 -152.0 Q -57.8 -63.8 0 0 Z" transform="rotate(40.0)" /><path d="M 0 0 Q 57.8 -63.8 0 -152.0 Q -57.8 -63.8 0 0 Z" transform="rotate(70.0)" /><path d="M 0 0 Q 57.8 -63.8 0 -152.0 Q -57.8 -63.8 0 0 Z" transform="rotate(100.0)" /><path d="M 0 0 Q 57.8 -63.8 0 -152.0 Q -57.8 -63.8 0 0 Z" transform="rotate(130.0)" /><path d="M 0 0 Q 57.8 -63.8 0 -152.0 Q -57.8 -63.8 0 0 Z" transform="rotate(160.0)" /><path d="M 0 0 Q 57.8 -63.8 0 -152.0 Q -57.8 -63.8 0 0 Z" transform="rotate(190.0)" /><path d="M 0 0 Q 57.8 -63.8 0 -152.0 Q -57.8 -63.8 0 0 Z" transform="rotate(220.0)" /><path d="M 0 0 Q 57.8 -63.8 0 -152.0 Q -57.8 -63.8 0 0 Z" transform="rotate(250.0)" /><path d="M 0 0 Q 57.8 -63.8 0 -152.0 Q -57.8 -63.8 0 0 Z" transform="rotate(280.0)" /><path d="M 0 0 Q 57.8 -63.8 0 -152.0 Q -57.8 -63.8 0 0 Z" transform="rotate(310.0)" /><path d="M 0 0 Q 57.8 -63.8 0 -152.0 Q -57.8 -63.8 0 0 Z" transform="rotate(340.0)" /><path d="M 0 0 Q 48.6 -53.8 0 -128.0 Q -48.6 -53.8 0 0 Z" transform="rotate(15.0)" /><path d="M 0 0 Q 48.6 -53.8 0 -128.0 Q -48.6 -53.8 0 0 Z" transform="rotate(45.0)" /><path d="M 0 0 Q 48.6 -53.8 0 -128.0 Q -48.6 -53.8 0 0 Z" transform="rotate(75.0)" /><path d="M 0 0 Q 48.6 -53.8 0 -128.0 Q -48.6 -53.8 0 0 Z" transform="rotate(105.0)" /><path d="M 0 0 Q 48.6 -53.8 0 -128.0 Q -48.6 -53.8 0 0 Z" transform="rotate(135.0)" /><path d="M 0 0 Q 48.6 -53.8 0 -128.0 Q -48.6 -53.8 0 0 Z" transform="rotate(165.0)" /><path d="M 0 0 Q 48.6 -53.8 0 -128.0 Q -48.6 -53.8 0 0 Z" transform="rotate(195.0)" /><path d="M 0 0 Q 48.6 -53.8 0 -128.0 Q -48.6 -53.8 0 0 Z" transform="rotate(225.0)" /><path d="M 0 0 Q 48.6 -53.8 0 -128.0 Q -48.6 -53.8 0 0 Z" transform="rotate(255.0)" /><path d="M 0 0 Q 48.6 -53.8 0 -128.0 Q -48.6 -53.8 0 0 Z" transform="rotate(285.0)" /><path d="M 0 0 Q 48.6 -53.8 0 -128.0 Q -48.6 -53.8 0 0 Z" transform="rotate(315.0)" /><path d="M 0 0 Q 48.6 -53.8 0 -128.0 Q -48.6 -53.8 0 0 Z" transform="rotate(345.0)" /><path d="M 0 0 Q 39.5 -43.7 0 -104.0 Q -39.5 -43.7 0 0 Z" transform="rotate(20.0)" /><path d="M 0 0 Q 39.5 -43.7 0 -104.0 Q -39.5 -43.7 0 0 Z" transform="rotate(50.0)" /><path d="M 0 0 Q 39.5 -43.7 0 -104.0 Q -39.5 -43.7 0 0 Z" transform="rotate(80.0)" /><path d="M 0 0 Q 39.5 -43.7 0 -104.0 Q -39.5 -43.7 0 0 Z" transform="rotate(110.0)" /><path d="M 0 0 Q 39.5 -43.7 0 -104.0 Q -39.5 -43.7 0 0 Z" transform="rotate(140.0)" /><path d="M 0 0 Q 39.5 -43.7 0 -104.0 Q -39.5 -43.7 0 0 Z" transform="rotate(170.0)" /><path d="M 0 0 Q 39.5 -43.7 0 -104.0 Q -39.5 -43.7 0 0 Z" transform="rotate(200.0)" /><path d="M 0 0 Q 39.5 -43.7 0 -104.0 Q -39.5 -43.7 0 0 Z" transform="rotate(230.0)" /><path d="M 0 0 Q 39.5 -43.7 0 -104.0 Q -39.5 -43.7 0 0 Z" transform="rotate(260.0)" /><path d="M 0 0 Q 39.5 -43.7 0 -104.0 Q -39.5 -43.7 0 0 Z" transform="rotate(290.0)" /><path d="M 0 0 Q 39.5 -43.7 0 -104.0 Q -39.5 -43.7 0 0 Z" transform="rotate(320.0)" /><path d="M 0 0 Q 39.5 -43.7 0 -104.0 Q -39.5 -43.7 0 0 Z" transform="rotate(350.0)" /><path d="M 0 0 Q 30.4 -33.6 0 -80.0 Q -30.4 -33.6 0 0 Z" transform="rotate(25.0)" /><path d="M 0 0 Q 30.4 -33.6 0 -80.0 Q -30.4 -33.6 0 0 Z" transform="rotate(55.0)" /><path d="M 0 0 Q 30.4 -33.6 0 -80.0 Q -30.4 -33.6 0 0 Z" transform="rotate(85.0)" /><path d="M 0 0 Q 30.4 -33.6 0 -80.0 Q -30.4 -33.6 0 0 Z" transform="rotate(115.0)" /><path d="M 0 0 Q 30.4 -33.6 0 -80.0 Q -30.4 -33.6 0 0 Z" transform="rotate(145.0)" /><path d="M 0 0 Q 30.4 -33.6 0 -80.0 Q -30.4 -33.6 0 0 Z" transform="rotate(175.0)" /><path d="M 0 0 Q 30.4 -33.6 0 -80.0 Q -30.4 -33.6 0 0 Z" transform="rotate(205.0)" /><path d="M 0 0 Q 30.4 -33.6 0 -80.0 Q -30.4 -33.6 0 0 Z" transform="rotate(235.0)" /><path d="M 0 0 Q 30.4 -33.6 0 -80.0 Q -30.4 -33.6 0 0 Z" transform="rotate(265.0)" /><path d="M 0 0 Q 30.4 -33.6 0 -80.0 Q -30.4 -33.6 0 0 Z" transform="rotate(295.0)" /><path d="M 0 0 Q 30.4 -33.6 0 -80.0 Q -30.4 -33.6 0 0 Z" transform="rotate(325.0)" /><path d="M 0 0 Q 30.4 -33.6 0 -80.0 Q -30.4 -33.6 0 0 Z" transform="rotate(355.0)" /><path d="M 0 0 Q 21.3 -23.5 0 -56.0 Q -21.3 -23.5 0 0 Z" transform="rotate(30.0)" /><path d="M 0 0 Q 21.3 -23.5 0 -56.0 Q -21.3 -23.5 0 0 Z" transform="rotate(60.0)" /><path d="M 0 0 Q 21.3 -23.5 0 -56.0 Q -21.3 -23.5 0 0 Z" transform="rotate(90.0)" /><path d="M 0 0 Q 21.3 -23.5 0 -56.0 Q -21.3 -23.5 0 0 Z" transform="rotate(120.0)" /><path d="M 0 0 Q 21.3 -23.5 0 -56.0 Q -21.3 -23.5 0 0 Z" transform="rotate(150.0)" /><path d="M 0 0 Q 21.3 -23.5 0 -56.0 Q -21.3 -23.5 0 0 Z" transform="rotate(180.0)" /><path d="M 0 0 Q 21.3 -23.5 0 -56.0 Q -21.3 -23.5 0 0 Z" transform="rotate(210.0)" /><path d="M 0 0 Q 21.3 -23.5 0 -56.0 Q -21.3 -23.5 0 0 Z" transform="rotate(240.0)" /><path d="M 0 0 Q 21.3 -23.5 0 -56.0 Q -21.3 -23.5 0 0 Z" transform="rotate(270.0)" /><path d="M 0 0 Q 21.3 -23.5 0 -56.0 Q -21.3 -23.5 0 0 Z" transform="rotate(300.0)" /><path d="M 0 0 Q 21.3 -23.5 0 -56.0 Q -21.3 -23.5 0 0 Z" transform="rotate(330.0)" /><path d="M 0 0 Q 21.3 -23.5 0 -56.0 Q -21.3 -23.5 0 0 Z" transform="rotate(360.0)" />
    <g transform="rotate(15)"><path d="M 0 0 Q 54.7 -60.5 0 -144.0 Q -54.7 -60.5 0 0 Z" transform="rotate(0.0)" /><path d="M 0 0 Q 54.7 -60.5 0 -144.0 Q -54.7 -60.5 0 0 Z" transform="rotate(30.0)" /><path d="M 0 0 Q 54.7 -60.5 0 -144.0 Q -54.7 -60.5 0 0 Z" transform="rotate(60.0)" /><path d="M 0 0 Q 54.7 -60.5 0 -144.0 Q -54.7 -60.5 0 0 Z" transform="rotate(90.0)" /><path d="M 0 0 Q 54.7 -60.5 0 -144.0 Q -54.7 -60.5 0 0 Z" transform="rotate(120.0)" /><path d="M 0 0 Q 54.7 -60.5 0 -144.0 Q -54.7 -60.5 0 0 Z" transform="rotate(150.0)" /><path d="M 0 0 Q 54.7 -60.5 0 -144.0 Q -54.7 -60.5 0 0 Z" transform="rotate(180.0)" /><path d="M 0 0 Q 54.7 -60.5 0 -144.0 Q -54.7 -60.5 0 0 Z" transform="rotate(210.0)" /><path d="M 0 0 Q 54.7 -60.5 0 -144.0 Q -54.7 -60.5 0 0 Z" transform="rotate(240.0)" /><path d="M 0 0 Q 54.7 -60.5 0 -144.0 Q -54.7 -60.5 0 0 Z" transform="rotate(270.0)" /><path d="M 0 0 Q 54.7 -60.5 0 -144.0 Q -54.7 -60.5 0 0 Z" transform="rotate(300.0)" /><path d="M 0 0 Q 54.7 -60.5 0 -144.0 Q -54.7 -60.5 0 0 Z" transform="rotate(330.0)" /><path d="M 0 0 Q 48.2 -53.2 0 -126.7 Q -48.2 -53.2 0 0 Z" transform="rotate(5.0)" /><path d="M 0 0 Q 48.2 -53.2 0 -126.7 Q -48.2 -53.2 0 0 Z" transform="rotate(35.0)" /><path d="M 0 0 Q 48.2 -53.2 0 -126.7 Q -48.2 -53.2 0 0 Z" transform="rotate(65.0)" /><path d="M 0 0 Q 48.2 -53.2 0 -126.7 Q -48.2 -53.2 0 0 Z" transform="rotate(95.0)" /><path d="M 0 0 Q 48.2 -53.2 0 -126.7 Q -48.2 -53.2 0 0 Z" transform="rotate(125.0)" /><path d="M 0 0 Q 48.2 -53.2 0 -126.7 Q -48.2 -53.2 0 0 Z" transform="rotate(155.0)" /><path d="M 0 0 Q 48.2 -53.2 0 -126.7 Q -48.2 -53.2 0 0 Z" transform="rotate(185.0)" /><path d="M 0 0 Q 48.2 -53.2 0 -126.7 Q -48.2 -53.2 0 0 Z" transform="rotate(215.0)" /><path d="M 0 0 Q 48.2 -53.2 0 -126.7 Q -48.2 -53.2 0 0 Z" transform="rotate(245.0)" /><path d="M 0 0 Q 48.2 -53.2 0 -126.7 Q -48.2 -53.2 0 0 Z" transform="rotate(275.0)" /><path d="M 0 0 Q 48.2 -53.2 0 -126.7 Q -48.2 -53.2 0 0 Z" transform="rotate(305.0)" /><path d="M 0 0 Q 48.2 -53.2 0 -126.7 Q -48.2 -53.2 0 0 Z" transform="rotate(335.0)" /><path d="M 0 0 Q 41.6 -46.0 0 -109.4 Q -41.6 -46.0 0 0 Z" transform="rotate(10.0)" /><path d="M 0 0 Q 41.6 -46.0 0 -109.4 Q -41.6 -46.0 0 0 Z" transform="rotate(40.0)" /><path d="M 0 0 Q 41.6 -46.0 0 -109.4 Q -41.6 -46.0 0 0 Z" transform="rotate(70.0)" /><path d="M 0 0 Q 41.6 -46.0 0 -109.4 Q -41.6 -46.0 0 0 Z" transform="rotate(100.0)" /><path d="M 0 0 Q 41.6 -46.0 0 -109.4 Q -41.6 -46.0 0 0 Z" transform="rotate(130.0)" /><path d="M 0 0 Q 41.6 -46.0 0 -109.4 Q -41.6 -46.0 0 0 Z" transform="rotate(160.0)" /><path d="M 0 0 Q 41.6 -46.0 0 -109.4 Q -41.6 -46.0 0 0 Z" transform="rotate(190.0)" /><path d="M 0 0 Q 41.6 -46.0 0 -109.4 Q -41.6 -46.0 0 0 Z" transform="rotate(220.0)" /><path d="M 0 0 Q 41.6 -46.0 0 -109.4 Q -41.6 -46.0 0 0 Z" transform="rotate(250.0)" /><path d="M 0 0 Q 41.6 -46.0 0 -109.4 Q -41.6 -46.0 0 0 Z" transform="rotate(280.0)" /><path d="M 0 0 Q 41.6 -46.0 0 -109.4 Q -41.6 -46.0 0 0 Z" transform="rotate(310.0)" /><path d="M 0 0 Q 41.6 -46.0 0 -109.4 Q -41.6 -46.0 0 0 Z" transform="rotate(340.0)" /><path d="M 0 0 Q 35.0 -38.7 0 -92.2 Q -35.0 -38.7 0 0 Z" transform="rotate(15.0)" /><path d="M 0 0 Q 35.0 -38.7 0 -92.2 Q -35.0 -38.7 0 0 Z" transform="rotate(45.0)" /><path d="M 0 0 Q 35.0 -38.7 0 -92.2 Q -35.0 -38.7 0 0 Z" transform="rotate(75.0)" /><path d="M 0 0 Q 35.0 -38.7 0 -92.2 Q -35.0 -38.7 0 0 Z" transform="rotate(105.0)" /><path d="M 0 0 Q 35.0 -38.7 0 -92.2 Q -35.0 -38.7 0 0 Z" transform="rotate(135.0)" /><path d="M 0 0 Q 35.0 -38.7 0 -92.2 Q -35.0 -38.7 0 0 Z" transform="rotate(165.0)" /><path d="M 0 0 Q 35.0 -38.7 0 -92.2 Q -35.0 -38.7 0 0 Z" transform="rotate(195.0)" /><path d="M 0 0 Q 35.0 -38.7 0 -92.2 Q -35.0 -38.7 0 0 Z" transform="rotate(225.0)" /><path d="M 0 0 Q 35.0 -38.7 0 -92.2 Q -35.0 -38.7 0 0 Z" transform="rotate(255.0)" /><path d="M 0 0 Q 35.0 -38.7 0 -92.2 Q -35.0 -38.7 0 0 Z" transform="rotate(285.0)" /><path d="M 0 0 Q 35.0 -38.7 0 -92.2 Q -35.0 -38.7 0 0 Z" transform="rotate(315.0)" /><path d="M 0 0 Q 35.0 -38.7 0 -92.2 Q -35.0 -38.7 0 0 Z" transform="rotate(345.0)" /><path d="M 0 0 Q 28.5 -31.4 0 -74.9 Q -28.5 -31.4 0 0 Z" transform="rotate(20.0)" /><path d="M 0 0 Q 28.5 -31.4 0 -74.9 Q -28.5 -31.4 0 0 Z" transform="rotate(50.0)" /><path d="M 0 0 Q 28.5 -31.4 0 -74.9 Q -28.5 -31.4 0 0 Z" transform="rotate(80.0)" /><path d="M 0 0 Q 28.5 -31.4 0 -74.9 Q -28.5 -31.4 0 0 Z" transform="rotate(110.0)" /><path d="M 0 0 Q 28.5 -31.4 0 -74.9 Q -28.5 -31.4 0 0 Z" transform="rotate(140.0)" /><path d="M 0 0 Q 28.5 -31.4 0 -74.9 Q -28.5 -31.4 0 0 Z" transform="rotate(170.0)" /><path d="M 0 0 Q 28.5 -31.4 0 -74.9 Q -28.5 -31.4 0 0 Z" transform="rotate(200.0)" /><path d="M 0 0 Q 28.5 -31.4 0 -74.9 Q -28.5 -31.4 0 0 Z" transform="rotate(230.0)" /><path d="M 0 0 Q 28.5 -31.4 0 -74.9 Q -28.5 -31.4 0 0 Z" transform="rotate(260.0)" /><path d="M 0 0 Q 28.5 -31.4 0 -74.9 Q -28.5 -31.4 0 0 Z" transform="rotate(290.0)" /><path d="M 0 0 Q 28.5 -31.4 0 -74.9 Q -28.5 -31.4 0 0 Z" transform="rotate(320.0)" /><path d="M 0 0 Q 28.5 -31.4 0 -74.9 Q -28.5 -31.4 0 0 Z" transform="rotate(350.0)" /></g>
  </g>
  
  <g transform="translate(720 1280)" fill="none" stroke="#d9a868" stroke-width="1" opacity="0.18">
    
    <path d="M 0 0 Q 76.0 -84.0 0 -200.0 Q -76.0 -84.0 0 0 Z" transform="rotate(0.0)" /><path d="M 0 0 Q 76.0 -84.0 0 -200.0 Q -76.0 -84.0 0 0 Z" transform="rotate(30.0)" /><path d="M 0 0 Q 76.0 -84.0 0 -200.0 Q -76.0 -84.0 0 0 Z" transform="rotate(60.0)" /><path d="M 0 0 Q 76.0 -84.0 0 -200.0 Q -76.0 -84.0 0 0 Z" transform="rotate(90.0)" /><path d="M 0 0 Q 76.0 -84.0 0 -200.0 Q -76.0 -84.0 0 0 Z" transform="rotate(120.0)" /><path d="M 0 0 Q 76.0 -84.0 0 -200.0 Q -76.0 -84.0 0 0 Z" transform="rotate(150.0)" /><path d="M 0 0 Q 76.0 -84.0 0 -200.0 Q -76.0 -84.0 0 0 Z" transform="rotate(180.0)" /><path d="M 0 0 Q 76.0 -84.0 0 -200.0 Q -76.0 -84.0 0 0 Z" transform="rotate(210.0)" /><path d="M 0 0 Q 76.0 -84.0 0 -200.0 Q -76.0 -84.0 0 0 Z" transform="rotate(240.0)" /><path d="M 0 0 Q 76.0 -84.0 0 -200.0 Q -76.0 -84.0 0 0 Z" transform="rotate(270.0)" /><path d="M 0 0 Q 76.0 -84.0 0 -200.0 Q -76.0 -84.0 0 0 Z" transform="rotate(300.0)" /><path d="M 0 0 Q 76.0 -84.0 0 -200.0 Q -76.0 -84.0 0 0 Z" transform="rotate(330.0)" /><path d="M 0 0 Q 66.9 -73.9 0 -176.0 Q -66.9 -73.9 0 0 Z" transform="rotate(5.0)" /><path d="M 0 0 Q 66.9 -73.9 0 -176.0 Q -66.9 -73.9 0 0 Z" transform="rotate(35.0)" /><path d="M 0 0 Q 66.9 -73.9 0 -176.0 Q -66.9 -73.9 0 0 Z" transform="rotate(65.0)" /><path d="M 0 0 Q 66.9 -73.9 0 -176.0 Q -66.9 -73.9 0 0 Z" transform="rotate(95.0)" /><path d="M 0 0 Q 66.9 -73.9 0 -176.0 Q -66.9 -73.9 0 0 Z" transform="rotate(125.0)" /><path d="M 0 0 Q 66.9 -73.9 0 -176.0 Q -66.9 -73.9 0 0 Z" transform="rotate(155.0)" /><path d="M 0 0 Q 66.9 -73.9 0 -176.0 Q -66.9 -73.9 0 0 Z" transform="rotate(185.0)" /><path d="M 0 0 Q 66.9 -73.9 0 -176.0 Q -66.9 -73.9 0 0 Z" transform="rotate(215.0)" /><path d="M 0 0 Q 66.9 -73.9 0 -176.0 Q -66.9 -73.9 0 0 Z" transform="rotate(245.0)" /><path d="M 0 0 Q 66.9 -73.9 0 -176.0 Q -66.9 -73.9 0 0 Z" transform="rotate(275.0)" /><path d="M 0 0 Q 66.9 -73.9 0 -176.0 Q -66.9 -73.9 0 0 Z" transform="rotate(305.0)" /><path d="M 0 0 Q 66.9 -73.9 0 -176.0 Q -66.9 -73.9 0 0 Z" transform="rotate(335.0)" /><path d="M 0 0 Q 57.8 -63.8 0 -152.0 Q -57.8 -63.8 0 0 Z" transform="rotate(10.0)" /><path d="M 0 0 Q 57.8 -63.8 0 -152.0 Q -57.8 -63.8 0 0 Z" transform="rotate(40.0)" /><path d="M 0 0 Q 57.8 -63.8 0 -152.0 Q -57.8 -63.8 0 0 Z" transform="rotate(70.0)" /><path d="M 0 0 Q 57.8 -63.8 0 -152.0 Q -57.8 -63.8 0 0 Z" transform="rotate(100.0)" /><path d="M 0 0 Q 57.8 -63.8 0 -152.0 Q -57.8 -63.8 0 0 Z" transform="rotate(130.0)" /><path d="M 0 0 Q 57.8 -63.8 0 -152.0 Q -57.8 -63.8 0 0 Z" transform="rotate(160.0)" /><path d="M 0 0 Q 57.8 -63.8 0 -152.0 Q -57.8 -63.8 0 0 Z" transform="rotate(190.0)" /><path d="M 0 0 Q 57.8 -63.8 0 -152.0 Q -57.8 -63.8 0 0 Z" transform="rotate(220.0)" /><path d="M 0 0 Q 57.8 -63.8 0 -152.0 Q -57.8 -63.8 0 0 Z" transform="rotate(250.0)" /><path d="M 0 0 Q 57.8 -63.8 0 -152.0 Q -57.8 -63.8 0 0 Z" transform="rotate(280.0)" /><path d="M 0 0 Q 57.8 -63.8 0 -152.0 Q -57.8 -63.8 0 0 Z" transform="rotate(310.0)" /><path d="M 0 0 Q 57.8 -63.8 0 -152.0 Q -57.8 -63.8 0 0 Z" transform="rotate(340.0)" /><path d="M 0 0 Q 48.6 -53.8 0 -128.0 Q -48.6 -53.8 0 0 Z" transform="rotate(15.0)" /><path d="M 0 0 Q 48.6 -53.8 0 -128.0 Q -48.6 -53.8 0 0 Z" transform="rotate(45.0)" /><path d="M 0 0 Q 48.6 -53.8 0 -128.0 Q -48.6 -53.8 0 0 Z" transform="rotate(75.0)" /><path d="M 0 0 Q 48.6 -53.8 0 -128.0 Q -48.6 -53.8 0 0 Z" transform="rotate(105.0)" /><path d="M 0 0 Q 48.6 -53.8 0 -128.0 Q -48.6 -53.8 0 0 Z" transform="rotate(135.0)" /><path d="M 0 0 Q 48.6 -53.8 0 -128.0 Q -48.6 -53.8 0 0 Z" transform="rotate(165.0)" /><path d="M 0 0 Q 48.6 -53.8 0 -128.0 Q -48.6 -53.8 0 0 Z" transform="rotate(195.0)" /><path d="M 0 0 Q 48.6 -53.8 0 -128.0 Q -48.6 -53.8 0 0 Z" transform="rotate(225.0)" /><path d="M 0 0 Q 48.6 -53.8 0 -128.0 Q -48.6 -53.8 0 0 Z" transform="rotate(255.0)" /><path d="M 0 0 Q 48.6 -53.8 0 -128.0 Q -48.6 -53.8 0 0 Z" transform="rotate(285.0)" /><path d="M 0 0 Q 48.6 -53.8 0 -128.0 Q -48.6 -53.8 0 0 Z" transform="rotate(315.0)" /><path d="M 0 0 Q 48.6 -53.8 0 -128.0 Q -48.6 -53.8 0 0 Z" transform="rotate(345.0)" /><path d="M 0 0 Q 39.5 -43.7 0 -104.0 Q -39.5 -43.7 0 0 Z" transform="rotate(20.0)" /><path d="M 0 0 Q 39.5 -43.7 0 -104.0 Q -39.5 -43.7 0 0 Z" transform="rotate(50.0)" /><path d="M 0 0 Q 39.5 -43.7 0 -104.0 Q -39.5 -43.7 0 0 Z" transform="rotate(80.0)" /><path d="M 0 0 Q 39.5 -43.7 0 -104.0 Q -39.5 -43.7 0 0 Z" transform="rotate(110.0)" /><path d="M 0 0 Q 39.5 -43.7 0 -104.0 Q -39.5 -43.7 0 0 Z" transform="rotate(140.0)" /><path d="M 0 0 Q 39.5 -43.7 0 -104.0 Q -39.5 -43.7 0 0 Z" transform="rotate(170.0)" /><path d="M 0 0 Q 39.5 -43.7 0 -104.0 Q -39.5 -43.7 0 0 Z" transform="rotate(200.0)" /><path d="M 0 0 Q 39.5 -43.7 0 -104.0 Q -39.5 -43.7 0 0 Z" transform="rotate(230.0)" /><path d="M 0 0 Q 39.5 -43.7 0 -104.0 Q -39.5 -43.7 0 0 Z" transform="rotate(260.0)" /><path d="M 0 0 Q 39.5 -43.7 0 -104.0 Q -39.5 -43.7 0 0 Z" transform="rotate(290.0)" /><path d="M 0 0 Q 39.5 -43.7 0 -104.0 Q -39.5 -43.7 0 0 Z" transform="rotate(320.0)" /><path d="M 0 0 Q 39.5 -43.7 0 -104.0 Q -39.5 -43.7 0 0 Z" transform="rotate(350.0)" /><path d="M 0 0 Q 30.4 -33.6 0 -80.0 Q -30.4 -33.6 0 0 Z" transform="rotate(25.0)" /><path d="M 0 0 Q 30.4 -33.6 0 -80.0 Q -30.4 -33.6 0 0 Z" transform="rotate(55.0)" /><path d="M 0 0 Q 30.4 -33.6 0 -80.0 Q -30.4 -33.6 0 0 Z" transform="rotate(85.0)" /><path d="M 0 0 Q 30.4 -33.6 0 -80.0 Q -30.4 -33.6 0 0 Z" transform="rotate(115.0)" /><path d="M 0 0 Q 30.4 -33.6 0 -80.0 Q -30.4 -33.6 0 0 Z" transform="rotate(145.0)" /><path d="M 0 0 Q 30.4 -33.6 0 -80.0 Q -30.4 -33.6 0 0 Z" transform="rotate(175.0)" /><path d="M 0 0 Q 30.4 -33.6 0 -80.0 Q -30.4 -33.6 0 0 Z" transform="rotate(205.0)" /><path d="M 0 0 Q 30.4 -33.6 0 -80.0 Q -30.4 -33.6 0 0 Z" transform="rotate(235.0)" /><path d="M 0 0 Q 30.4 -33.6 0 -80.0 Q -30.4 -33.6 0 0 Z" transform="rotate(265.0)" /><path d="M 0 0 Q 30.4 -33.6 0 -80.0 Q -30.4 -33.6 0 0 Z" transform="rotate(295.0)" /><path d="M 0 0 Q 30.4 -33.6 0 -80.0 Q -30.4 -33.6 0 0 Z" transform="rotate(325.0)" /><path d="M 0 0 Q 30.4 -33.6 0 -80.0 Q -30.4 -33.6 0 0 Z" transform="rotate(355.0)" /><path d="M 0 0 Q 21.3 -23.5 0 -56.0 Q -21.3 -23.5 0 0 Z" transform="rotate(30.0)" /><path d="M 0 0 Q 21.3 -23.5 0 -56.0 Q -21.3 -23.5 0 0 Z" transform="rotate(60.0)" /><path d="M 0 0 Q 21.3 -23.5 0 -56.0 Q -21.3 -23.5 0 0 Z" transform="rotate(90.0)" /><path d="M 0 0 Q 21.3 -23.5 0 -56.0 Q -21.3 -23.5 0 0 Z" transform="rotate(120.0)" /><path d="M 0 0 Q 21.3 -23.5 0 -56.0 Q -21.3 -23.5 0 0 Z" transform="rotate(150.0)" /><path d="M 0 0 Q 21.3 -23.5 0 -56.0 Q -21.3 -23.5 0 0 Z" transform="rotate(180.0)" /><path d="M 0 0 Q 21.3 -23.5 0 -56.0 Q -21.3 -23.5 0 0 Z" transform="rotate(210.0)" /><path d="M 0 0 Q 21.3 -23.5 0 -56.0 Q -21.3 -23.5 0 0 Z" transform="rotate(240.0)" /><path d="M 0 0 Q 21.3 -23.5 0 -56.0 Q -21.3 -23.5 0 0 Z" transform="rotate(270.0)" /><path d="M 0 0 Q 21.3 -23.5 0 -56.0 Q -21.3 -23.5 0 0 Z" transform="rotate(300.0)" /><path d="M 0 0 Q 21.3 -23.5 0 -56.0 Q -21.3 -23.5 0 0 Z" transform="rotate(330.0)" /><path d="M 0 0 Q 21.3 -23.5 0 -56.0 Q -21.3 -23.5 0 0 Z" transform="rotate(360.0)" />
    <g transform="rotate(15)"><path d="M 0 0 Q 54.7 -60.5 0 -144.0 Q -54.7 -60.5 0 0 Z" transform="rotate(0.0)" /><path d="M 0 0 Q 54.7 -60.5 0 -144.0 Q -54.7 -60.5 0 0 Z" transform="rotate(30.0)" /><path d="M 0 0 Q 54.7 -60.5 0 -144.0 Q -54.7 -60.5 0 0 Z" transform="rotate(60.0)" /><path d="M 0 0 Q 54.7 -60.5 0 -144.0 Q -54.7 -60.5 0 0 Z" transform="rotate(90.0)" /><path d="M 0 0 Q 54.7 -60.5 0 -144.0 Q -54.7 -60.5 0 0 Z" transform="rotate(120.0)" /><path d="M 0 0 Q 54.7 -60.5 0 -144.0 Q -54.7 -60.5 0 0 Z" transform="rotate(150.0)" /><path d="M 0 0 Q 54.7 -60.5 0 -144.0 Q -54.7 -60.5 0 0 Z" transform="rotate(180.0)" /><path d="M 0 0 Q 54.7 -60.5 0 -144.0 Q -54.7 -60.5 0 0 Z" transform="rotate(210.0)" /><path d="M 0 0 Q 54.7 -60.5 0 -144.0 Q -54.7 -60.5 0 0 Z" transform="rotate(240.0)" /><path d="M 0 0 Q 54.7 -60.5 0 -144.0 Q -54.7 -60.5 0 0 Z" transform="rotate(270.0)" /><path d="M 0 0 Q 54.7 -60.5 0 -144.0 Q -54.7 -60.5 0 0 Z" transform="rotate(300.0)" /><path d="M 0 0 Q 54.7 -60.5 0 -144.0 Q -54.7 -60.5 0 0 Z" transform="rotate(330.0)" /><path d="M 0 0 Q 48.2 -53.2 0 -126.7 Q -48.2 -53.2 0 0 Z" transform="rotate(5.0)" /><path d="M 0 0 Q 48.2 -53.2 0 -126.7 Q -48.2 -53.2 0 0 Z" transform="rotate(35.0)" /><path d="M 0 0 Q 48.2 -53.2 0 -126.7 Q -48.2 -53.2 0 0 Z" transform="rotate(65.0)" /><path d="M 0 0 Q 48.2 -53.2 0 -126.7 Q -48.2 -53.2 0 0 Z" transform="rotate(95.0)" /><path d="M 0 0 Q 48.2 -53.2 0 -126.7 Q -48.2 -53.2 0 0 Z" transform="rotate(125.0)" /><path d="M 0 0 Q 48.2 -53.2 0 -126.7 Q -48.2 -53.2 0 0 Z" transform="rotate(155.0)" /><path d="M 0 0 Q 48.2 -53.2 0 -126.7 Q -48.2 -53.2 0 0 Z" transform="rotate(185.0)" /><path d="M 0 0 Q 48.2 -53.2 0 -126.7 Q -48.2 -53.2 0 0 Z" transform="rotate(215.0)" /><path d="M 0 0 Q 48.2 -53.2 0 -126.7 Q -48.2 -53.2 0 0 Z" transform="rotate(245.0)" /><path d="M 0 0 Q 48.2 -53.2 0 -126.7 Q -48.2 -53.2 0 0 Z" transform="rotate(275.0)" /><path d="M 0 0 Q 48.2 -53.2 0 -126.7 Q -48.2 -53.2 0 0 Z" transform="rotate(305.0)" /><path d="M 0 0 Q 48.2 -53.2 0 -126.7 Q -48.2 -53.2 0 0 Z" transform="rotate(335.0)" /><path d="M 0 0 Q 41.6 -46.0 0 -109.4 Q -41.6 -46.0 0 0 Z" transform="rotate(10.0)" /><path d="M 0 0 Q 41.6 -46.0 0 -109.4 Q -41.6 -46.0 0 0 Z" transform="rotate(40.0)" /><path d="M 0 0 Q 41.6 -46.0 0 -109.4 Q -41.6 -46.0 0 0 Z" transform="rotate(70.0)" /><path d="M 0 0 Q 41.6 -46.0 0 -109.4 Q -41.6 -46.0 0 0 Z" transform="rotate(100.0)" /><path d="M 0 0 Q 41.6 -46.0 0 -109.4 Q -41.6 -46.0 0 0 Z" transform="rotate(130.0)" /><path d="M 0 0 Q 41.6 -46.0 0 -109.4 Q -41.6 -46.0 0 0 Z" transform="rotate(160.0)" /><path d="M 0 0 Q 41.6 -46.0 0 -109.4 Q -41.6 -46.0 0 0 Z" transform="rotate(190.0)" /><path d="M 0 0 Q 41.6 -46.0 0 -109.4 Q -41.6 -46.0 0 0 Z" transform="rotate(220.0)" /><path d="M 0 0 Q 41.6 -46.0 0 -109.4 Q -41.6 -46.0 0 0 Z" transform="rotate(250.0)" /><path d="M 0 0 Q 41.6 -46.0 0 -109.4 Q -41.6 -46.0 0 0 Z" transform="rotate(280.0)" /><path d="M 0 0 Q 41.6 -46.0 0 -109.4 Q -41.6 -46.0 0 0 Z" transform="rotate(310.0)" /><path d="M 0 0 Q 41.6 -46.0 0 -109.4 Q -41.6 -46.0 0 0 Z" transform="rotate(340.0)" /><path d="M 0 0 Q 35.0 -38.7 0 -92.2 Q -35.0 -38.7 0 0 Z" transform="rotate(15.0)" /><path d="M 0 0 Q 35.0 -38.7 0 -92.2 Q -35.0 -38.7 0 0 Z" transform="rotate(45.0)" /><path d="M 0 0 Q 35.0 -38.7 0 -92.2 Q -35.0 -38.7 0 0 Z" transform="rotate(75.0)" /><path d="M 0 0 Q 35.0 -38.7 0 -92.2 Q -35.0 -38.7 0 0 Z" transform="rotate(105.0)" /><path d="M 0 0 Q 35.0 -38.7 0 -92.2 Q -35.0 -38.7 0 0 Z" transform="rotate(135.0)" /><path d="M 0 0 Q 35.0 -38.7 0 -92.2 Q -35.0 -38.7 0 0 Z" transform="rotate(165.0)" /><path d="M 0 0 Q 35.0 -38.7 0 -92.2 Q -35.0 -38.7 0 0 Z" transform="rotate(195.0)" /><path d="M 0 0 Q 35.0 -38.7 0 -92.2 Q -35.0 -38.7 0 0 Z" transform="rotate(225.0)" /><path d="M 0 0 Q 35.0 -38.7 0 -92.2 Q -35.0 -38.7 0 0 Z" transform="rotate(255.0)" /><path d="M 0 0 Q 35.0 -38.7 0 -92.2 Q -35.0 -38.7 0 0 Z" transform="rotate(285.0)" /><path d="M 0 0 Q 35.0 -38.7 0 -92.2 Q -35.0 -38.7 0 0 Z" transform="rotate(315.0)" /><path d="M 0 0 Q 35.0 -38.7 0 -92.2 Q -35.0 -38.7 0 0 Z" transform="rotate(345.0)" /><path d="M 0 0 Q 28.5 -31.4 0 -74.9 Q -28.5 -31.4 0 0 Z" transform="rotate(20.0)" /><path d="M 0 0 Q 28.5 -31.4 0 -74.9 Q -28.5 -31.4 0 0 Z" transform="rotate(50.0)" /><path d="M 0 0 Q 28.5 -31.4 0 -74.9 Q -28.5 -31.4 0 0 Z" transform="rotate(80.0)" /><path d="M 0 0 Q 28.5 -31.4 0 -74.9 Q -28.5 -31.4 0 0 Z" transform="rotate(110.0)" /><path d="M 0 0 Q 28.5 -31.4 0 -74.9 Q -28.5 -31.4 0 0 Z" transform="rotate(140.0)" /><path d="M 0 0 Q 28.5 -31.4 0 -74.9 Q -28.5 -31.4 0 0 Z" transform="rotate(170.0)" /><path d="M 0 0 Q 28.5 -31.4 0 -74.9 Q -28.5 -31.4 0 0 Z" transform="rotate(200.0)" /><path d="M 0 0 Q 28.5 -31.4 0 -74.9 Q -28.5 -31.4 0 0 Z" transform="rotate(230.0)" /><path d="M 0 0 Q 28.5 -31.4 0 -74.9 Q -28.5 -31.4 0 0 Z" transform="rotate(260.0)" /><path d="M 0 0 Q 28.5 -31.4 0 -74.9 Q -28.5 -31.4 0 0 Z" transform="rotate(290.0)" /><path d="M 0 0 Q 28.5 -31.4 0 -74.9 Q -28.5 -31.4 0 0 Z" transform="rotate(320.0)" /><path d="M 0 0 Q 28.5 -31.4 0 -74.9 Q -28.5 -31.4 0 0 Z" transform="rotate(350.0)" /></g>
  </g>
</svg>